<svg xmlns="http://www.w3.org/2000/svg" xmlns:xlink="http://www.w3.org/1999/xlink" width="512" height="310" viewBox="0 0 512 310">
  <defs>
    <clipPath id="clip-path">
      <rect id="Rectangle_21590" data-name="Rectangle 21590" width="512" height="310" transform="translate(745 2007)" fill="#fff" stroke="#707070" stroke-width="1"/>
    </clipPath>
    <clipPath id="clip-path-2">
      <rect id="Rectangle_21484" data-name="Rectangle 21484" width="468.933" height="300.046" fill="none"/>
    </clipPath>
    <clipPath id="clip-path-3">
      <rect id="Rectangle_21479" data-name="Rectangle 21479" width="38.846" height="50.496" fill="none"/>
    </clipPath>
    <clipPath id="clip-path-4">
      <rect id="Rectangle_21480" data-name="Rectangle 21480" width="32.319" height="50.563" fill="none"/>
    </clipPath>
    <clipPath id="clip-path-6">
      <rect id="Rectangle_21485" data-name="Rectangle 21485" width="3.024" height="2.989" fill="none"/>
    </clipPath>
    <clipPath id="clip-path-7">
      <rect id="Rectangle_21486" data-name="Rectangle 21486" width="3.018" height="2.975" fill="none"/>
    </clipPath>
    <clipPath id="clip-path-8">
      <rect id="Rectangle_21487" data-name="Rectangle 21487" width="11.838" height="18.143" fill="none"/>
    </clipPath>
    <clipPath id="clip-path-9">
      <rect id="Rectangle_21488" data-name="Rectangle 21488" width="65.399" height="39.584" fill="none"/>
    </clipPath>
  </defs>
  <g id="Mask_Group_121205" data-name="Mask Group 121205" transform="translate(-745 -2007)" clip-path="url(#clip-path)">
    <g id="Group_135259" data-name="Group 135259">
      <g id="Group_134751" data-name="Group 134751" transform="translate(805.067 2018.309)">
        <g id="Group_135248" data-name="Group 135248">
          <path id="Path_100885" data-name="Path 100885" d="M542.532,394.413c0,.116-121.46.21-271.253.21C121.434,394.623,0,394.529,0,394.413s121.434-.21,271.279-.21c149.793,0,271.253.094,271.253.21" transform="translate(-73.599 -118.041)" fill="#263238"/>
        </g>
      </g>
      <g id="Group_134753" data-name="Group 134753" transform="translate(765.067 2018.309)">
        <g id="Group_135247" data-name="Group 135247">
          <path id="Path_100886" data-name="Path 100886" d="M430.092,286.542H85a10.174,10.174,0,0,1-10.174-10.173V50.3a5.413,5.413,0,0,1,5.413-5.413H435.558a4.707,4.707,0,0,1,4.707,4.707V276.368a10.174,10.174,0,0,1-10.173,10.173" transform="translate(-22.569 -13.537)" fill="#455a64"/>
          <path id="Path_100887" data-name="Path 100887" d="M439.287,386.459H62.529a9.583,9.583,0,0,1-9.583-9.583V365.315H448.87v11.562a9.583,9.583,0,0,1-9.583,9.583" transform="translate(-15.969 -110.183)" fill="#455a64"/>
          <rect id="Rectangle_21476" data-name="Rectangle 21476" width="344.797" height="204.077" transform="translate(62.068 40.947)" fill="#f5f5f5"/>
          <path id="Path_100888" data-name="Path 100888" d="M284.874,365.314l4.913,7.815H358.92l4.562-7.815Z" transform="translate(-85.921 -110.182)" fill="#263238"/>
          <rect id="Rectangle_21477" data-name="Rectangle 21477" width="365.437" height="1.166" transform="translate(52.318 255.06)" fill="#263238"/>
        </g>
      </g>
      <g id="Group_134761" data-name="Group 134761" transform="translate(765.067 2018.309)">
        <g id="Group_134760" data-name="Group 134760" clip-path="url(#clip-path-2)">
          <path id="Path_100889" data-name="Path 100889" d="M223.729,31.585H185.766V18.217A17.37,17.37,0,0,1,202.849.8l20.88.332Z" transform="translate(-56.029 -0.24)" fill="#e0e0e0"/>
          <path id="Path_100890" data-name="Path 100890" d="M209.061.6s21.605-1.961,21.605,26.215V246.009H400.233V18.824A18.616,18.616,0,0,0,381.573.209Z" transform="translate(-63.055 -0.063)" fill="#fff"/>
          <path id="Path_100891" data-name="Path 100891" d="M209.061.537,334.511.132,364.886.044,381.046,0A18.986,18.986,0,0,1,389.2,1.607a19.261,19.261,0,0,1,6.771,5.075,18.822,18.822,0,0,1,3.876,7.681,17.75,17.75,0,0,1,.394,2.156c.1.726.093,1.464.145,2.2q0,2.189,0,4.4,0,8.827,0,17.929,0,18.2.008,37.424c0,51.221.009,107.532.014,166.639v1.024h-.182l-169.567-.015H230.5v-.167c.027-75.893.05-140.334.066-185.8.008-11.367.016-21.548.022-30.426,0-2.219.027-4.358-.123-6.4a39.246,39.246,0,0,0-.812-5.84,30.617,30.617,0,0,0-1.659-5.119,23.336,23.336,0,0,0-2.435-4.2,18.5,18.5,0,0,0-6.12-5.249,20.144,20.144,0,0,0-5.56-1.968,21.1,21.1,0,0,0-3.592-.408c-.813-.02-1.226.01-1.226.01A10.534,10.534,0,0,1,210.288.5a20.561,20.561,0,0,1,3.6.382,20.092,20.092,0,0,1,5.588,1.95,18.541,18.541,0,0,1,6.167,5.257A23.332,23.332,0,0,1,228.1,12.3a30.541,30.541,0,0,1,1.68,5.139,39.283,39.283,0,0,1,.826,5.858c.154,2.053.133,4.2.135,6.414.007,8.878.015,19.059.023,30.426.016,45.47.039,109.911.066,185.8l-.167-.167,169.567-.015-.182.182V245.1c.006-59.107.01-115.418.015-166.639q0-19.207.008-37.424,0-9.1,0-17.929c-.045-2.94.211-5.887-.529-8.677a18.508,18.508,0,0,0-3.809-7.559,18.95,18.95,0,0,0-6.66-5A18.7,18.7,0,0,0,381.045.292L364.857.323l-30.434.05L209.061.537" transform="translate(-63.055 0)" fill="#263238"/>
          <path id="Path_100892" data-name="Path 100892" d="M324.031,95.936c0,.1-10.312.182-23.029.182s-23.031-.081-23.031-.182,10.31-.182,23.031-.182,23.029.081,23.029.182" transform="translate(-83.839 -28.88)" fill="#263238"/>
          <path id="Path_100893" data-name="Path 100893" d="M334.357,103.822c0,.1-12.623.182-28.19.182s-28.194-.081-28.194-.182,12.621-.182,28.194-.182,28.19.081,28.19.182" transform="translate(-83.839 -31.259)" fill="#263238"/>
          <path id="Path_100894" data-name="Path 100894" d="M338.862,134.868c0,.1-13.034.182-29.108.182s-29.111-.081-29.111-.182,13.031-.182,29.111-.182,29.108.081,29.108.182" transform="translate(-84.645 -40.623)" fill="#263238"/>
          <path id="Path_100895" data-name="Path 100895" d="M376.427,165.125c0,.1-21.79.182-48.664.182s-48.669-.081-48.669-.182,21.786-.182,48.669-.182,48.664.081,48.664.182" transform="translate(-84.178 -49.748)" fill="#263238"/>
          <path id="Path_100896" data-name="Path 100896" d="M376.427,174.153c0,.1-21.79.182-48.664.182s-48.669-.081-48.669-.182,21.786-.182,48.669-.182,48.664.081,48.664.182" transform="translate(-84.178 -52.471)" fill="#263238"/>
          <path id="Path_100897" data-name="Path 100897" d="M376.427,183.181c0,.1-21.79.182-48.664.182s-48.669-.081-48.669-.182S300.88,183,327.763,183s48.664.081,48.664.182" transform="translate(-84.178 -55.194)" fill="#263238"/>
          <path id="Path_100898" data-name="Path 100898" d="M376.427,192.21c0,.1-21.79.182-48.664.182s-48.669-.081-48.669-.182,21.786-.182,48.669-.182,48.664.081,48.664.182" transform="translate(-84.178 -57.918)" fill="#263238"/>
          <path id="Path_100899" data-name="Path 100899" d="M376.427,201.238c0,.1-21.79.182-48.664.182s-48.669-.081-48.669-.182,21.786-.182,48.669-.182,48.664.081,48.664.182" transform="translate(-84.178 -60.64)" fill="#263238"/>
          <path id="Path_100900" data-name="Path 100900" d="M316,210.266c0,.1-8.263.182-18.454.182s-18.456-.081-18.456-.182,8.261-.182,18.456-.182,18.454.081,18.454.182" transform="translate(-84.177 -63.363)" fill="#263238"/>
          <path id="Path_100901" data-name="Path 100901" d="M557.139,113.061l-17.315,40.233a1.017,1.017,0,0,0,1.345,1.333l13.346-5.891a1.016,1.016,0,0,1,1.375.609l4.5,13.516a1.017,1.017,0,0,0,1.917.036l16.274-43.4Z" transform="translate(-162.79 -34.1)" fill="#4591c5"/>
          <path id="Path_100902" data-name="Path 100902" d="M596.961,119.742l8.293,43.008a1.017,1.017,0,0,0,1.862.346l7.726-12.374a1.018,1.018,0,0,1,1.481-.27l11.321,8.648a1.017,1.017,0,0,0,1.606-1.048l-10.933-45.04Z" transform="translate(-180.049 -34.086)" fill="#4591c5"/>
          <g id="Group_134756" data-name="Group 134756" transform="translate(376.948 78.961)" opacity="0.3">
            <g id="Group_134755" data-name="Group 134755">
              <g id="Group_134754" data-name="Group 134754" clip-path="url(#clip-path-3)">
                <path id="Path_100903" data-name="Path 100903" d="M557.139,113.061l-17.315,40.233a1.017,1.017,0,0,0,1.345,1.333l13.346-5.891a1.016,1.016,0,0,1,1.375.609l4.5,13.516a1.017,1.017,0,0,0,1.917.036l16.274-43.4Z" transform="translate(-539.738 -113.061)"/>
              </g>
            </g>
          </g>
          <g id="Group_134759" data-name="Group 134759" transform="translate(416.912 78.927)" opacity="0.3">
            <g id="Group_134758" data-name="Group 134758">
              <g id="Group_134757" data-name="Group 134757" clip-path="url(#clip-path-4)">
                <path id="Path_100904" data-name="Path 100904" d="M596.961,119.742l8.293,43.008a1.017,1.017,0,0,0,1.862.346l7.726-12.374a1.018,1.018,0,0,1,1.481-.27l11.321,8.648a1.017,1.017,0,0,0,1.606-1.048l-10.933-45.04Z" transform="translate(-596.961 -113.013)"/>
              </g>
            </g>
          </g>
          <path id="Path_100905" data-name="Path 100905" d="M578.621,10.273,584.305,6.1l4.467,5.46,6.545-2.633,2.969,6.4,6.994-.923,1.284,6.937,7,.846-.482,7.038,6.573,2.561-2.217,6.7,5.73,4.115-3.812,5.936,4.526,5.41-5.169,4.8,3.038,6.366-6.2,3.365,1.36,6.922-6.843,1.717-.4,7.043-7.054-.038-2.143,6.721-6.823-1.792L589.9,95.02l-6.163-3.433-5.116,4.857-5.116-4.857-6.163,3.433L563.6,89.042l-6.823,1.792-2.144-6.721-7.054.038-.4-7.043-6.843-1.717,1.361-6.922-6.2-3.365,3.038-6.366-5.169-4.8,4.526-5.41-3.812-5.936,5.73-4.115-2.217-6.7,6.573-2.561-.482-7.038,7-.846,1.284-6.937,6.994.923,2.969-6.4,6.545,2.633,4.467-5.46Z" transform="translate(-160.866 -1.838)" fill="#4591c5"/>
          <path id="Path_100906" data-name="Path 100906" d="M616.32,56.982a31.949,31.949,0,1,1-31.949-31.949A31.949,31.949,0,0,1,616.32,56.982" transform="translate(-166.616 -7.55)" fill="#fff"/>
          <path id="Path_100907" data-name="Path 100907" d="M598.048,55.765l8.574,1.256a1.717,1.717,0,0,1,.948,2.93l-6.212,6.042a1.718,1.718,0,0,0-.5,1.52l1.455,8.543a1.718,1.718,0,0,1-2.494,1.808l-7.666-4.041a1.716,1.716,0,0,0-1.6,0l-7.675,4.024a1.718,1.718,0,0,1-2.49-1.814l1.474-8.539a1.72,1.72,0,0,0-.492-1.521l-6.2-6.055a1.717,1.717,0,0,1,.955-2.929l8.577-1.236a1.718,1.718,0,0,0,1.294-.939l3.844-7.766a1.718,1.718,0,0,1,3.081,0l3.826,7.775a1.716,1.716,0,0,0,1.292.941" transform="translate(-173.323 -13.901)" fill="#4591c5"/>
          <path id="Path_100908" data-name="Path 100908" d="M301.073,47.672a3.92,3.92,0,0,1,4.169-3.942,4.01,4.01,0,0,1,3.259,1.43l-1.364,1.234a2.245,2.245,0,0,0-1.788-.888,2.166,2.166,0,0,0,0,4.331,2.243,2.243,0,0,0,1.788-.888l1.364,1.235a4.011,4.011,0,0,1-3.259,1.429,3.919,3.919,0,0,1-4.169-3.941" transform="translate(-90.807 -13.189)" fill="#263238"/>
          <path id="Path_100909" data-name="Path 100909" d="M319.157,49.87v1.657h-6.085V43.947h5.945V45.6h-3.822v1.277h3.368v1.6h-3.368V49.87Z" transform="translate(-94.426 -13.255)" fill="#263238"/>
          <path id="Path_100910" data-name="Path 100910" d="M326.806,49.513h-1.169v2.014h-2.144V43.948h3.465c2.067,0,3.367,1.071,3.367,2.8a2.515,2.515,0,0,1-1.483,2.393l1.636,2.382h-2.3Zm.022-3.876h-1.191v2.219h1.191c.888,0,1.331-.411,1.331-1.1s-.443-1.115-1.331-1.115" transform="translate(-97.569 -13.255)" fill="#263238"/>
          <path id="Path_100911" data-name="Path 100911" d="M336.116,45.647h-2.328v-1.7h6.789v1.7h-2.317v5.879h-2.143Z" transform="translate(-100.674 -13.255)" fill="#263238"/>
          <rect id="Rectangle_21481" data-name="Rectangle 21481" width="2.144" height="7.579" transform="translate(240.705 30.693)" fill="#263238"/>
          <path id="Path_100912" data-name="Path 100912" d="M352.057,45.6v1.667H355.4v1.657h-3.346v2.6h-2.143V43.948h5.944V45.6Z" transform="translate(-105.537 -13.255)" fill="#263238"/>
          <rect id="Rectangle_21482" data-name="Rectangle 21482" width="2.144" height="7.579" transform="translate(251.328 30.693)" fill="#263238"/>
          <path id="Path_100913" data-name="Path 100913" d="M364.566,47.672a3.92,3.92,0,0,1,4.169-3.942,4.009,4.009,0,0,1,3.259,1.43l-1.364,1.234a2.243,2.243,0,0,0-1.787-.888,2.166,2.166,0,0,0,0,4.331,2.242,2.242,0,0,0,1.787-.888l1.364,1.235a4.01,4.01,0,0,1-3.259,1.429,3.92,3.92,0,0,1-4.169-3.941" transform="translate(-109.957 -13.189)" fill="#263238"/>
          <path id="Path_100914" data-name="Path 100914" d="M381.065,50.054h-3.2l-.6,1.472h-2.187l3.345-7.579h2.112l3.356,7.579h-2.23Zm-.628-1.581-.974-2.426-.975,2.426Z" transform="translate(-113.127 -13.255)" fill="#263238"/>
          <path id="Path_100915" data-name="Path 100915" d="M389.33,45.647H387v-1.7h6.788v1.7h-2.317v5.879H389.33Z" transform="translate(-116.724 -13.255)" fill="#263238"/>
          <rect id="Rectangle_21483" data-name="Rectangle 21483" width="2.143" height="7.579" transform="translate(277.868 30.693)" fill="#263238"/>
          <path id="Path_100916" data-name="Path 100916" d="M402.569,47.672a4.221,4.221,0,1,1,4.211,3.941,3.964,3.964,0,0,1-4.211-3.941m6.258,0a2.05,2.05,0,1,0-2.047,2.166,2.03,2.03,0,0,0,2.047-2.166" transform="translate(-121.419 -13.189)" fill="#263238"/>
          <path id="Path_100917" data-name="Path 100917" d="M423.454,43.948v7.579H421.69l-3.345-4.039v4.039h-2.1V43.948h1.765l3.345,4.039V43.948Z" transform="translate(-125.543 -13.255)" fill="#263238"/>
          <path id="Path_100918" data-name="Path 100918" d="M420.233,248.379c0,.1-9.664.182-21.582.182s-21.584-.081-21.584-.182,9.662-.182,21.584-.182,21.582.081,21.582.182" transform="translate(-113.727 -74.859)" fill="#263238"/>
          <path id="Path_100919" data-name="Path 100919" d="M420.233,257.1c0,.1-9.664.182-21.582.182s-21.584-.081-21.584-.182,9.662-.182,21.584-.182,21.582.081,21.582.182" transform="translate(-113.727 -77.489)" fill="#263238"/>
          <path id="Path_100920" data-name="Path 100920" d="M418.525,286.925a1.947,1.947,0,0,1-.034-.3c-.015-.217-.036-.511-.063-.887q-.019-.3-.041-.654c-.027-.24-.079-.5-.122-.781a13.71,13.71,0,0,0-.394-1.928,17.848,17.848,0,0,0-2.079-4.952,18.563,18.563,0,0,0-22.3-7.914,17.038,17.038,0,0,0-4.691,2.525,16.964,16.964,0,0,0-3.918,3.937,17.935,17.935,0,0,0-2.649,5.107,18.376,18.376,0,0,0,0,11.7,17.968,17.968,0,0,0,2.649,5.108,16.956,16.956,0,0,0,3.919,3.938,17.058,17.058,0,0,0,4.692,2.526,18.608,18.608,0,0,0,22.3-7.916,17.87,17.87,0,0,0,2.078-4.952,13.613,13.613,0,0,0,.394-1.928c.043-.282.095-.541.122-.781s.029-.456.041-.653c.027-.376.048-.671.063-.888a1.945,1.945,0,0,1,.034-.3,1.923,1.923,0,0,1,0,.3c-.007.218-.016.513-.027.892q-.01.3-.024.657c-.02.241-.067.5-.1.787a13.21,13.21,0,0,1-.364,1.946,17.706,17.706,0,0,1-2.041,5.021,18.826,18.826,0,0,1-12.674,8.923,18.9,18.9,0,0,1-9.914-.8A17.374,17.374,0,0,1,388.6,302.1a17.285,17.285,0,0,1-4-4.007,18.253,18.253,0,0,1-2.7-5.2,18.7,18.7,0,0,1,0-11.925,18.292,18.292,0,0,1,2.706-5.2,17.292,17.292,0,0,1,4-4.005,17.356,17.356,0,0,1,4.783-2.561,18.9,18.9,0,0,1,9.913-.8,18.833,18.833,0,0,1,12.674,8.922,17.722,17.722,0,0,1,2.041,5.022,13.2,13.2,0,0,1,.364,1.947c.038.284.084.545.1.786s.017.46.024.658c.011.379.02.674.027.892a1.921,1.921,0,0,1,0,.3" transform="translate(-114.888 -80.855)" fill="#4591c5"/>
          <path id="Path_100921" data-name="Path 100921" d="M414.806,289.87a12.029,12.029,0,1,1-12.029-12.029,12.029,12.029,0,0,1,12.029,12.029" transform="translate(-117.853 -83.8)" fill="#4591c5"/>
          <path id="Path_100922" data-name="Path 100922" d="M417.584,280.234s-.168.1-.506.284l-1.5.795-5.777,3.013-9.124,4.715a9.028,9.028,0,0,1-2.972.95,4.018,4.018,0,0,1-3.152-.96,2.937,2.937,0,0,1-.933-1.5,1.9,1.9,0,0,1,.4-1.766,2.489,2.489,0,0,1,1.681-.813,1.563,1.563,0,0,1,1.647.922l.009.024v.023a8.286,8.286,0,0,1-2.02,5.5,7.792,7.792,0,0,1-5.565,2.8,8.461,8.461,0,0,1-6.207-2.243,5.621,5.621,0,0,1-1.789-3.008,2.885,2.885,0,0,1,.235-1.816,2.626,2.626,0,0,1,1.357-1.27,1.938,1.938,0,0,1,1.863.254,3.2,3.2,0,0,1,1.057,1.564,5.677,5.677,0,0,1,.287,1.852,9.188,9.188,0,0,1-.144,1.873,10.833,10.833,0,0,1-3.893,6.431,9.548,9.548,0,0,1-7.4,2.128,10.707,10.707,0,0,1-6.771-4.121,10.164,10.164,0,0,1-1.946-4.193,7.784,7.784,0,0,1,.346-4.551,3.8,3.8,0,0,1,1.495-1.759,3.172,3.172,0,0,1,2.259-.431,2.7,2.7,0,0,1,1.792,1.407,7.952,7.952,0,0,1,.735,2.1,14.879,14.879,0,0,1-.517,8.5,12.143,12.143,0,0,1-5.129,6.311,11.919,11.919,0,0,1-7.568,1.65,9.86,9.86,0,0,1-3.581-1.16,9.716,9.716,0,0,1-2.78-2.363,10.1,10.1,0,0,1-2.309-6.415,8.508,8.508,0,0,1,.668-3.2,3.887,3.887,0,0,1,2.169-2.227,2.8,2.8,0,0,1,1.545-.043,3.317,3.317,0,0,1,1.285.775,6.211,6.211,0,0,1,1.471,2.415,7.926,7.926,0,0,1,.469,2.622c.01.43.022.852,0,1.268-.008.416-.033.824-.078,1.224a21.048,21.048,0,0,1-2.354,7.841,20.334,20.334,0,0,1-2.99,4.237c-.4.441-.728.751-.952.958s-.341.308-.341.308.1-.118.316-.335.536-.532.923-.981a21.043,21.043,0,0,0,5.2-12.048c.042-.4.064-.8.07-1.212.022-.411.008-.829,0-1.254a7.7,7.7,0,0,0-.469-2.553,5.98,5.98,0,0,0-1.422-2.315,3.06,3.06,0,0,0-1.185-.712,2.552,2.552,0,0,0-1.4.045,3.633,3.633,0,0,0-2,2.092,8.241,8.241,0,0,0-.633,3.088,9.814,9.814,0,0,0,2.262,6.222,9.422,9.422,0,0,0,2.7,2.283,9.549,9.549,0,0,0,3.47,1.113,11.593,11.593,0,0,0,7.355-1.619,11.807,11.807,0,0,0,4.977-6.144,14.542,14.542,0,0,0,.5-8.3,7.616,7.616,0,0,0-.7-2.006,2.333,2.333,0,0,0-1.555-1.232,2.816,2.816,0,0,0-2,.388,3.451,3.451,0,0,0-1.351,1.6,7.441,7.441,0,0,0-.319,4.331,9.817,9.817,0,0,0,1.878,4.044,10.353,10.353,0,0,0,6.536,3.984,9.188,9.188,0,0,0,7.126-2.049,10.487,10.487,0,0,0,3.772-6.214,5.173,5.173,0,0,0,.116-.9,5,5,0,0,0,.024-.9,5.345,5.345,0,0,0-.267-1.749,2.864,2.864,0,0,0-.932-1.4,1.591,1.591,0,0,0-1.538-.213,2.288,2.288,0,0,0-1.177,1.1,2.547,2.547,0,0,0-.207,1.606,5.3,5.3,0,0,0,1.685,2.825,8.141,8.141,0,0,0,5.964,2.168,7.488,7.488,0,0,0,5.355-2.678,8,8,0,0,0,1.967-5.3l.009.047a1.283,1.283,0,0,0-1.367-.75,2.228,2.228,0,0,0-1.5.717,1.638,1.638,0,0,0-.346,1.532,2.683,2.683,0,0,0,.848,1.371,3.771,3.771,0,0,0,2.96.911,8.82,8.82,0,0,0,2.9-.914l9.149-4.653,5.811-2.945,1.52-.759c.344-.169.525-.247.525-.247" transform="translate(-105.912 -84.521)" fill="#263238"/>
          <path id="Path_100923" data-name="Path 100923" d="M328.189,33.474c0,.1-14.774.182-32.995.182s-33-.081-33-.182,14.771-.182,33-.182,32.995.081,32.995.182" transform="translate(-79.081 -10.041)" fill="#e0e0e0"/>
          <path id="Path_100924" data-name="Path 100924" d="M370.459,33.474a14.549,14.549,0,0,1-4.583,0,14.549,14.549,0,0,1,4.583,0" transform="translate(-110.352 -10.041)" fill="#e0e0e0"/>
          <path id="Path_100925" data-name="Path 100925" d="M440.5,33.474c0,.1-13.475.182-30.092.182s-30.1-.081-30.1-.182,13.471-.182,30.1-.182,30.092.081,30.092.182" transform="translate(-114.706 -10.041)" fill="#e0e0e0"/>
          <path id="Path_100926" data-name="Path 100926" d="M328.189,59.763c0,.1-14.774.182-32.995.182s-33-.081-33-.182,14.771-.182,33-.182,32.995.081,32.995.182" transform="translate(-79.081 -17.97)" fill="#e0e0e0"/>
          <path id="Path_100927" data-name="Path 100927" d="M370.459,59.763a14.549,14.549,0,0,1-4.583,0,14.549,14.549,0,0,1,4.583,0" transform="translate(-110.352 -17.97)" fill="#e0e0e0"/>
          <path id="Path_100928" data-name="Path 100928" d="M440.5,59.763c0,.1-13.475.182-30.092.182s-30.1-.081-30.1-.182,13.471-.182,30.1-.182,30.092.081,30.092.182" transform="translate(-114.706 -17.97)" fill="#e0e0e0"/>
        </g>
      </g>
      <g id="Group_134775" data-name="Group 134775" transform="translate(765.067 2018.309)">
        <g id="Group_134774" data-name="Group 134774" clip-path="url(#clip-path-2)">
          <path id="Path_100929" data-name="Path 100929" d="M198.775,116.254c5.09.659,5.848,5.882,7.733,10.256s5.5,8.277,8.271,12.2c1.467,2.071,3.467,3.931,4,6.391.555,2.572-.617,5.231-1.169,7.853s-.167,5.823,2.347,6.979a2.825,2.825,0,0,1-2.305.973,3.039,3.039,0,0,1-2.433,2.6,9.463,9.463,0,0,1-3.878-.038c.344.8-.385,1.768-1.285,2.085a5.271,5.271,0,0,1-2.8-.024,6.78,6.78,0,0,0-2.8-.2c-2.069.45-3.321,2.784-5.414,3.085-2.874.414-4.947-3.264-7.784-2.621-1.335.3-2.227,1.468-3.322,2.262s-2.944.592-3.463-.548a11.845,11.845,0,0,1-6.357,4.29,2.314,2.314,0,0,0-.48-2.515,9.693,9.693,0,0,1-4.731,2.076,4.848,4.848,0,0,0,1.58-3.783,4.865,4.865,0,0,1-4.162.9c2.56-1.455,2.81-4.854,1.9-7.4s-2.639-4.834-2.979-7.52c-.37-2.923,3.07-6.626,2.4-9.5a35.828,35.828,0,0,1-.775-11.255c.117-2.7,1.31-5.106,2.5-7.628a15.559,15.559,0,0,1,6.774-7.336,23.036,23.036,0,0,1,9.7-2.988c5.512-.12,7.759-.295,12.124,2.625" transform="translate(-51.038 -34.619)" fill="#263238"/>
          <path id="Path_100930" data-name="Path 100930" d="M184.785,156.742a68.643,68.643,0,0,1-4.487-10.965,23.979,23.979,0,0,1-.628-11.724c.132-.585,1.395-4.558,1.993-4.579.429-.015-.19,3.617.073,3.955a20.334,20.334,0,0,1,3.848,11.449,53.569,53.569,0,0,1-.8,11.865" transform="translate(-54.049 -39.05)" fill="#263238"/>
          <path id="Path_100931" data-name="Path 100931" d="M210.138,186.731c-6.093.689-20.76-5.711-21.58-11.787l-4.939-36.566c-1.64-9.782,2.686-18.889,12.509-20.257l.916-.074a17.732,17.732,0,0,1,18.924,14.843c1.374,8.485,2.782,17.874,3.093,22.46.644,9.5-8.726,11.732-8.726,11.732-.021,0,.241,2.192.585,4.964a43.647,43.647,0,0,1-.781,14.686" transform="translate(-55.279 -35.587)" fill="#ffbe9d"/>
          <path id="Path_100932" data-name="Path 100932" d="M216.558,187.133a22.988,22.988,0,0,1-12.644-2.661s3.543,6.894,12.94,5.28Z" transform="translate(-61.503 -55.639)" fill="#eb996e"/>
          <path id="Path_100933" data-name="Path 100933" d="M223.858,150.658a1.359,1.359,0,0,1-1.2,1.472,1.3,1.3,0,0,1-1.495-1.11,1.359,1.359,0,0,1,1.195-1.472,1.3,1.3,0,0,1,1.5,1.11" transform="translate(-66.704 -45.101)" fill="#263238"/>
          <path id="Path_100934" data-name="Path 100934" d="M225.359,145.017c-.154.19-1.241-.487-2.7-.367-1.458.1-2.467.936-2.639.77-.085-.073.061-.405.5-.781a3.722,3.722,0,0,1,2.1-.835,3.58,3.58,0,0,1,2.166.512c.476.308.653.615.577.7" transform="translate(-66.354 -43.369)" fill="#263238"/>
          <path id="Path_100935" data-name="Path 100935" d="M204.235,152.195a1.359,1.359,0,0,1-1.2,1.471,1.3,1.3,0,0,1-1.494-1.109,1.36,1.36,0,0,1,1.195-1.472,1.3,1.3,0,0,1,1.5,1.11" transform="translate(-60.785 -45.565)" fill="#263238"/>
          <path id="Path_100936" data-name="Path 100936" d="M204.938,147.142c-.154.19-1.242-.487-2.7-.366-1.457.1-2.467.936-2.639.77-.084-.073.06-.405.5-.781a3.727,3.727,0,0,1,2.1-.835,3.587,3.587,0,0,1,2.166.512c.474.309.653.616.577.7" transform="translate(-60.194 -44.01)" fill="#263238"/>
          <path id="Path_100937" data-name="Path 100937" d="M215.313,157.885a9.686,9.686,0,0,1,2.333-.617c.369-.068.716-.17.758-.43a1.9,1.9,0,0,0-.337-1.083l-1.328-2.746c-1.853-3.913-3.225-7.142-3.067-7.216s1.789,3.039,3.641,6.952q.672,1.449,1.283,2.767a2.16,2.16,0,0,1,.311,1.445.938.938,0,0,1-.568.594,2.559,2.559,0,0,1-.625.139,9.531,9.531,0,0,1-2.4.2" transform="translate(-64.442 -43.972)" fill="#263238"/>
          <path id="Path_100938" data-name="Path 100938" d="M203.546,139.332c-.168.388-1.614.11-3.339.212-1.728.066-3.139.483-3.345.113-.091-.177.173-.535.755-.886a5.815,5.815,0,0,1,5.092-.247c.613.291.911.623.837.807" transform="translate(-59.37 -41.638)" fill="#263238"/>
          <path id="Path_100939" data-name="Path 100939" d="M224.248,140.166c-.271.36-1.49.129-2.916.249-1.43.078-2.611.473-2.921.154-.138-.156.02-.506.518-.869a4.616,4.616,0,0,1,2.317-.768,4.537,4.537,0,0,1,2.387.443c.536.292.734.617.616.791" transform="translate(-65.86 -41.9)" fill="#263238"/>
          <path id="Path_100940" data-name="Path 100940" d="M183.089,157.083c-.168-.057-6.672-1.405-5.945,5.064s7.072,4.4,7.062,4.217-1.117-9.281-1.117-9.281" transform="translate(-53.411 -47.331)" fill="#ffbe9d"/>
          <path id="Path_100941" data-name="Path 100941" d="M182.681,165.094c-.031-.017-.1.092-.284.2a1.135,1.135,0,0,1-.841.112,2.807,2.807,0,0,1-1.571-2.356,3.748,3.748,0,0,1,.134-1.649,1.311,1.311,0,0,1,.751-.96.578.578,0,0,1,.7.234c.107.171.08.305.116.312.02.014.126-.124.044-.386a.724.724,0,0,0-.3-.376.855.855,0,0,0-.642-.094,1.592,1.592,0,0,0-1.064,1.135,3.852,3.852,0,0,0-.188,1.847,2.945,2.945,0,0,0,1.958,2.608,1.213,1.213,0,0,0,1.011-.287c.182-.183.2-.331.177-.34" transform="translate(-54.138 -48.29)" fill="#eb996e"/>
          <path id="Path_100942" data-name="Path 100942" d="M209.409,122.25c.976-.7-2.574-3.71-5.285-4.564-4.1-1.291-10.162-1.656-13.619-.205-4.163,1.746-7.485,4.327-9.174,8.513a25.606,25.606,0,0,0-1.277,13.324,7.78,7.78,0,0,0,1.39,3.837c1.076,1.319,2.917,2.009,3.081,3.989a2.724,2.724,0,0,0,.911,1.891c1.335,1.115,2.638-.243,3.159-1.509,1.113-2.7.9-5.744.677-8.659a19.028,19.028,0,0,0-1.154-6.1c-.447-1.038-1.078-1.995-1.467-3.057a3.911,3.911,0,0,1,.066-3.282,4.079,4.079,0,0,1,.46-.594,6.786,6.786,0,0,1,6.531-2.084c3.8.845,10.243,2.013,11.716.582a10.029,10.029,0,0,0,2.537-3.287Z" transform="translate(-54.203 -35.151)" fill="#263238"/>
          <path id="Path_100943" data-name="Path 100943" d="M210.427,164.919c-.087.024-.1.382.1.925a3.63,3.63,0,0,0,1.4,1.755,6,6,0,0,0,2.018.861c.539.124.884.14.913.052s-.267-.271-.751-.508a13.6,13.6,0,0,1-1.791-.969c-1.3-.85-1.681-2.188-1.884-2.117" transform="translate(-63.449 -49.74)" fill="#263238"/>
          <path id="Path_100944" data-name="Path 100944" d="M185.981,158.357c.053.113.106.232.159.363,0,0-.059-.129-.159-.363" transform="translate(-56.094 -47.762)" fill="#ff725e"/>
          <path id="Path_100945" data-name="Path 100945" d="M181.37,144.67s1.086-1.43,2.217.992c-1.348-3.173-10.311-26.1,14.261-29.124,0,0-8.874-1.566-14.229,2.849,0,0-10.876,6.506-2.249,25.282" transform="translate(-53.7 -35.068)" fill="#455a64"/>
          <path id="Path_100946" data-name="Path 100946" d="M208.085,320.033l-57.112.778s-15.971-6.683-20.359-6.863-13.1.379-17.127,6.863c-4.165,6.7-4.747,18.528,8.087,27.122,12.5,8.368,69.648,16.1,77.481,15.39L213.5,343.939s.151-15.886,0-16.643-2.572-7.565-2.572-7.565Z" transform="translate(-33.428 -94.682)" fill="#263238"/>
          <path id="Path_100947" data-name="Path 100947" d="M188.352,361.073l-29.591,10.991,13.487,36.885c3.444-1.5,3.542-23.173,3.542-23.173l19.248-6.265Z" transform="translate(-47.884 -108.903)" fill="#d13c32"/>
          <g id="Group_134764" data-name="Group 134764" transform="translate(122.571 264.243)" opacity="0.6">
            <g id="Group_134763" data-name="Group 134763">
              <g id="Group_134762" data-name="Group 134762" clip-path="url(#clip-path-6)">
                <path id="Path_100948" data-name="Path 100948" d="M178.268,379a1.6,1.6,0,0,0-2.1-.413,1.542,1.542,0,0,0-.428,2.078,1.692,1.692,0,0,0,2.226.425,1.6,1.6,0,0,0,.205-2.21" transform="translate(-175.505 -378.36)" fill="#fff"/>
              </g>
            </g>
          </g>
          <path id="Path_100949" data-name="Path 100949" d="M158.762,376.332l2.987-1.109,11.838,35.852s-.115,1.9-1.339,2.141Z" transform="translate(-47.884 -113.171)" fill="#263238"/>
          <path id="Path_100950" data-name="Path 100950" d="M182.292,396.047c-.182.06-.593-.811-1.5-1.486-.885-.7-1.833-.869-1.821-1.062-.026-.179,1.149-.3,2.228.532s1.27,1.993,1.09,2.015" transform="translate(-53.98 -118.644)" fill="#263238"/>
          <path id="Path_100951" data-name="Path 100951" d="M181.88,402.846c-.159.1-.751-.563-1.736-.9-.976-.362-1.856-.215-1.914-.4-.09-.159.919-.67,2.136-.232s1.684,1.459,1.513,1.525" transform="translate(-53.754 -120.99)" fill="#263238"/>
          <path id="Path_100952" data-name="Path 100952" d="M177.977,408.874c-.1-.15.71-.729,1.865-.627s1.856.8,1.734.932c-.111.156-.84-.2-1.791-.267-.948-.092-1.726.135-1.809-.038" transform="translate(-53.677 -123.128)" fill="#263238"/>
          <path id="Path_100953" data-name="Path 100953" d="M189.074,392.834c-.191-.015-.246-.932-.687-1.925-.422-1-1.053-1.669-.932-1.819.091-.152,1.041.378,1.544,1.555s.248,2.227.074,2.19" transform="translate(-56.534 -117.346)" fill="#263238"/>
          <path id="Path_100954" data-name="Path 100954" d="M195.241,388.129a3.689,3.689,0,0,1-.666-1.851,8.82,8.82,0,0,1-.112-2.15,9.356,9.356,0,0,1,.175-1.267,2.442,2.442,0,0,1,.23-.717.837.837,0,0,1,.928-.433,1.052,1.052,0,0,1,.7.639,2.534,2.534,0,0,1,.157.728,7.016,7.016,0,0,1,.027,1.293,6.926,6.926,0,0,1-.5,2.112c-.479,1.145-1.045,1.684-1.1,1.635-.089-.06.323-.683.659-1.793a7.86,7.86,0,0,0,.325-1.987,7.349,7.349,0,0,0-.061-1.18c-.04-.428-.159-.762-.369-.8-.08-.012-.108-.007-.192.117a1.937,1.937,0,0,0-.167.526,10.321,10.321,0,0,0-.2,1.18,10.907,10.907,0,0,0-.031,2.036,13.6,13.6,0,0,1,.2,1.911" transform="translate(-58.645 -115.119)" fill="#263238"/>
          <path id="Path_100955" data-name="Path 100955" d="M195.092,390.005c-.051-.054.464-.647,1.606-1.14a6.358,6.358,0,0,1,3.408-.427,1.624,1.624,0,0,1,1.363.837.918.918,0,0,1-.233.96,2.663,2.663,0,0,1-.608.437,4.369,4.369,0,0,1-1.244.456,4.522,4.522,0,0,1-2.2-.091c-1.219-.372-1.71-1.044-1.654-1.082a16.051,16.051,0,0,0,1.766.623,4.525,4.525,0,0,0,1.949-.05,4.055,4.055,0,0,0,1.055-.424c.371-.2.633-.464.54-.6-.064-.184-.474-.388-.842-.425a6.567,6.567,0,0,0-1.168-.092,7.069,7.069,0,0,0-1.974.316c-1.1.345-1.7.784-1.768.7" transform="translate(-58.841 -117.136)" fill="#263238"/>
          <path id="Path_100956" data-name="Path 100956" d="M232.577,354.547l28.635,13.283L244.869,403.54c-3.315-1.77-1.71-23.379-1.71-23.379l-18.7-7.758Z" transform="translate(-67.7 -106.935)" fill="#d13c32"/>
          <g id="Group_134767" data-name="Group 134767" transform="translate(178.638 260.934)" opacity="0.6">
            <g id="Group_134766" data-name="Group 134766">
              <g id="Group_134765" data-name="Group 134765" clip-path="url(#clip-path-7)">
                <path id="Path_100957" data-name="Path 100957" d="M256.112,374.164a1.6,1.6,0,0,1,2.126-.247,1.542,1.542,0,0,1,.263,2.1,1.692,1.692,0,0,1-2.253.249,1.6,1.6,0,0,1-.031-2.22" transform="translate(-255.785 -373.622)" fill="#fff"/>
              </g>
            </g>
          </g>
          <path id="Path_100958" data-name="Path 100958" d="M269.521,372.987l-2.89-1.341-14.619,34.813s-.036,1.907,1.166,2.239Z" transform="translate(-76.009 -112.092)" fill="#263238"/>
          <path id="Path_100959" data-name="Path 100959" d="M250.574,390.875c.177.074.655-.762,1.608-1.363.938-.626,1.9-.723,1.9-.915.04-.176-1.122-.393-2.263.355s-1.423,1.887-1.245,1.923" transform="translate(-75.561 -117.153)" fill="#263238"/>
          <path id="Path_100960" data-name="Path 100960" d="M250.347,397.66c.151.117.793-.5,1.8-.757,1-.284,1.867-.068,1.939-.246.1-.152-.863-.74-2.111-.4s-1.793,1.322-1.629,1.4" transform="translate(-75.498 -119.484)" fill="#263238"/>
          <path id="Path_100961" data-name="Path 100961" d="M253.818,403.962c.11-.141-.651-.783-1.81-.772s-1.914.652-1.8.792c.1.164.853-.131,1.805-.125.952-.016,1.71.27,1.807.1" transform="translate(-75.461 -121.606)" fill="#263238"/>
          <path id="Path_100962" data-name="Path 100962" d="M244.7,387.154c.192,0,.318-.911.836-1.865.5-.966,1.18-1.581,1.073-1.74-.08-.159-1.068.294-1.663,1.427s-.422,2.2-.246,2.178" transform="translate(-73.753 -115.673)" fill="#263238"/>
          <path id="Path_100963" data-name="Path 100963" d="M238.773,381.941a3.685,3.685,0,0,0,.809-1.793,8.835,8.835,0,0,0,.281-2.134,9.3,9.3,0,0,0-.075-1.277,2.42,2.42,0,0,0-.174-.732.837.837,0,0,0-.891-.5,1.051,1.051,0,0,0-.748.582,2.546,2.546,0,0,0-.214.713,7.066,7.066,0,0,0-.128,1.286,6.954,6.954,0,0,0,.328,2.145c.388,1.18.91,1.761.971,1.717.094-.053-.267-.706-.515-1.839a7.864,7.864,0,0,1-.168-2.006,7.254,7.254,0,0,1,.154-1.172c.073-.424.218-.747.431-.767.08-.006.108,0,.182.131a1.948,1.948,0,0,1,.126.538,10.323,10.323,0,0,1,.108,1.191,10.919,10.919,0,0,1-.129,2.032,13.511,13.511,0,0,0-.347,1.889" transform="translate(-71.673 -113.25)" fill="#263238"/>
          <path id="Path_100964" data-name="Path 100964" d="M237.017,383.718c.055-.05-.411-.682-1.511-1.262a6.361,6.361,0,0,0-3.364-.694,1.625,1.625,0,0,0-1.425.728.92.92,0,0,0,.157.975,2.7,2.7,0,0,0,.571.484,4.386,4.386,0,0,0,1.2.552,4.507,4.507,0,0,0,2.2.082c1.245-.274,1.786-.907,1.734-.948a15.867,15.867,0,0,1-1.81.483,4.525,4.525,0,0,1-1.939-.2,4.058,4.058,0,0,1-1.018-.506c-.354-.23-.6-.512-.491-.636a1.124,1.124,0,0,1,.872-.358,6.513,6.513,0,0,1,1.173,0,7.058,7.058,0,0,1,1.943.47c1.071.431,1.638.916,1.708.833" transform="translate(-69.562 -115.139)" fill="#263238"/>
          <path id="Path_100965" data-name="Path 100965" d="M231.922,318.731s24.662-9.211,33.739-8.019c5.076.666,13.012,4.539,13.618,11.045s-.983,15.209-9.759,19.445-43.8,19.954-52.122,22.374-29.069,8.089-29.069,8.089L180.448,349.2s43-14.889,45.271-16.553,8.018-3.934,8.018-3.934Z" transform="translate(-54.425 -93.682)" fill="#263238"/>
          <path id="Path_100966" data-name="Path 100966" d="M131.395,325.96a.844.844,0,0,0,.171-.045l.5-.15c.435-.131,1.079-.319,1.918-.519a21.042,21.042,0,0,1,7.241-.533,24.116,24.116,0,0,1,4.936.941,17.055,17.055,0,0,1,2.6,1.016l2.685,1.31c3.689,1.763,7.809,3.569,12.2,5.3,8.788,3.521,17.224,5.192,23.238,6.559,3.018.668,5.457,1.217,7.138,1.617l1.937.459.5.114a.813.813,0,0,0,.175.03.975.975,0,0,0-.168-.057l-.5-.14c-.439-.117-1.087-.3-1.925-.507-1.675-.431-4.109-1.008-7.121-1.7-6.007-1.414-14.42-3.111-23.182-6.622-4.383-1.731-8.5-3.528-12.191-5.276l-2.686-1.3a17.223,17.223,0,0,0-2.643-1.017,23.975,23.975,0,0,0-4.984-.917,22.421,22.421,0,0,0-4.181.034,21.932,21.932,0,0,0-3.1.585c-.839.216-1.479.421-1.91.568l-.487.176a.9.9,0,0,0-.163.07" transform="translate(-39.63 -97.856)" fill="#455a64"/>
          <path id="Path_100967" data-name="Path 100967" d="M133.252,321.675c.008.043.751-.091,1.958-.221a29.539,29.539,0,0,1,9.43.485c1.188.253,1.912.463,1.925.421a2.076,2.076,0,0,0-.494-.2c-.322-.115-.8-.255-1.389-.406a24.751,24.751,0,0,0-9.5-.487c-.6.089-1.092.18-1.424.26a2.059,2.059,0,0,0-.511.147" transform="translate(-40.19 -96.822)" fill="#455a64"/>
          <path id="Path_100968" data-name="Path 100968" d="M269.007,329.389c.029.037.712-.492,1.894-1.224a25.122,25.122,0,0,1,10.151-3.582c1.379-.172,2.243-.189,2.243-.235a2.7,2.7,0,0,0-.608-.032,16.119,16.119,0,0,0-1.655.08,22.433,22.433,0,0,0-10.233,3.611,16.176,16.176,0,0,0-1.339.976,2.679,2.679,0,0,0-.453.406" transform="translate(-81.135 -97.816)" fill="#455a64"/>
          <path id="Path_100969" data-name="Path 100969" d="M229.955,359.868s-.066.022-.192.073l-.56.235c-.5.2-1.215.541-2.179.911-1.921.763-4.76,1.807-8.4,3-7.285,2.381-17.757,5.413-30.288,8.569l.142.076-7.624-21.163-.074.167,9.442-3.876,52.245-21.5.018-.007.013-.014c2.127-2.252,4.083-4.234,5.917-5.836a40.021,40.021,0,0,1,4.961-3.738,36.612,36.612,0,0,1,3.4-1.9l.914-.427c.2-.1.307-.153.307-.153s-.109.04-.318.13l-.925.4a33.894,33.894,0,0,0-3.433,1.861,39.308,39.308,0,0,0-5,3.715c-1.848,1.6-3.819,3.575-5.954,5.818l.03-.021L190.12,347.619,180.68,351.5l-.117.047.043.119,7.647,21.155.037.1.1-.027c12.532-3.178,23-6.244,30.275-8.666,3.636-1.217,6.47-2.284,8.383-3.069.961-.382,1.674-.735,2.166-.947l.552-.252c.124-.058.184-.092.184-.092" transform="translate(-54.46 -94.793)" fill="#455a64"/>
          <path id="Path_100970" data-name="Path 100970" d="M156.51,209.7s-7.1,4.09-8.54,8.9c-.874,2.918-7.5,40.25-8.546,47.612-1.058,7.432,1.163,12.815,4.3,15.256s12.656,5.7,12.656,5.7L169.77,291.5l3.837-9.766-12.744-18.308,1.233-12.333Z" transform="translate(-41.971 -63.247)" fill="#d13c32"/>
          <path id="Path_100971" data-name="Path 100971" d="M177.962,198.81l4.428-3.266s5.769,5.9,12.4,5.207a16.657,16.657,0,0,0,10.553-5.769l19.763,4.024c1.326.266,3.745,1.1,6.057,4.408,2.581,3.687,14.809,20.033,14.809,20.033h8.565a6.353,6.353,0,0,1,5.627,3.395c1.462,2.783,3.217,6.506,3.046,8.049-.29,2.607.213,9.767-3.285,12-1.109.709-5.077,2.835-8.157,2.69-4.544-.214-9.821-2.58-12.862-4.706-2.575-1.8-8.563-8.023-10.866-10.452l0,.038-1.479,51.847-51.819-1.476L164,205.26s13.435-6.45,13.958-6.45" transform="translate(-49.465 -58.808)" fill="#d13c32"/>
          <path id="Path_100972" data-name="Path 100972" d="M255.789,220.355c-.073,0-.209,6.426-.3,14.352s-.11,14.356-.036,14.357.209-6.424.3-14.353.11-14.355.036-14.355" transform="translate(-77.032 -66.461)" fill="#263238"/>
          <path id="Path_100973" data-name="Path 100973" d="M155.02,280.366c0,.027.439.071,1.223.219a15.092,15.092,0,0,1,3.208,1.022,20.9,20.9,0,0,1,4.272,2.581,37.383,37.383,0,0,1,4.5,4.162c1.483,1.6,2.835,3.183,4.107,4.588a49.539,49.539,0,0,0,3.53,3.6,25.076,25.076,0,0,0,2.653,2.124c.325.235.6.388.775.5a1.47,1.47,0,0,0,.282.156,1.487,1.487,0,0,0-.253-.2c-.167-.129-.43-.295-.744-.541a29.583,29.583,0,0,1-2.586-2.178c-1.046-.972-2.217-2.208-3.475-3.62s-2.606-3-4.1-4.607a36.066,36.066,0,0,0-4.547-4.176,20.274,20.274,0,0,0-4.347-2.558,13.89,13.89,0,0,0-3.264-.951,8.8,8.8,0,0,0-.919-.105,1.456,1.456,0,0,0-.322-.012" transform="translate(-46.756 -84.56)" fill="#263238"/>
          <path id="Path_100974" data-name="Path 100974" d="M153.342,275.336c-.007.048.784.157,2.019.5a18.757,18.757,0,0,1,8.487,5.056c.889.923,1.361,1.566,1.4,1.537a2.28,2.28,0,0,0-.3-.475,12.35,12.35,0,0,0-.962-1.191,17.037,17.037,0,0,0-8.577-5.109,12.533,12.533,0,0,0-1.506-.279,2.264,2.264,0,0,0-.561-.038" transform="translate(-46.249 -83.042)" fill="#263238"/>
          <g id="Group_134770" data-name="Group 134770" transform="translate(191.698 165.143)" opacity="0.3">
            <g id="Group_134769" data-name="Group 134769">
              <g id="Group_134768" data-name="Group 134768" clip-path="url(#clip-path-8)">
                <path id="Path_100975" data-name="Path 100975" d="M286.323,254.514c-2.743.748-6.037-3.2-8.529-5.669a10.5,10.5,0,0,1-3.12-4.417,7,7,0,0,1,.431-4.422,16.223,16.223,0,0,1,1.823-3.543c-.23,2.129-.754,5.392-.037,8.069a14.326,14.326,0,0,0,3.512,5.693c1.588,1.783,3.465,3.655,5.92,4.289" transform="translate(-274.485 -236.462)"/>
              </g>
            </g>
          </g>
          <path id="Path_100976" data-name="Path 100976" d="M274.2,252.2c.052-.016-.267-.9-.524-2.391a18.314,18.314,0,0,1-.251-2.633,18.1,18.1,0,0,1,1.006-6.365,18.115,18.115,0,0,1,1.05-2.428c.7-1.336,1.279-2.082,1.235-2.113a3.139,3.139,0,0,0-.421.509,6.646,6.646,0,0,0-.445.636c-.161.256-.359.54-.534.879a16.354,16.354,0,0,0-1.116,2.435,17.158,17.158,0,0,0-1.02,6.454,16.529,16.529,0,0,0,.311,2.66c.062.376.163.707.237,1a6.782,6.782,0,0,0,.227.742,3.132,3.132,0,0,0,.244.615" transform="translate(-82.392 -71.26)" fill="#263238"/>
          <path id="Path_100977" data-name="Path 100977" d="M220.1,197.844c-.036.07.572.423,1.208.993s1.061,1.127,1.126,1.084a3.9,3.9,0,0,0-2.333-2.077" transform="translate(-66.383 -59.669)" fill="#263238"/>
          <path id="Path_100978" data-name="Path 100978" d="M212.376,202.333c-.056.056.466.616.885,1.442s.58,1.573.658,1.559a3.812,3.812,0,0,0-1.543-3" transform="translate(-64.054 -61.025)" fill="#263238"/>
          <path id="Path_100979" data-name="Path 100979" d="M199.149,205.643a39.669,39.669,0,0,0,1.122-3.115,6.026,6.026,0,0,0-1.122,3.115" transform="translate(-60.059 -61.084)" fill="#263238"/>
          <path id="Path_100980" data-name="Path 100980" d="M190.644,201.47c.079.017.281-.887.866-1.841s1.282-1.56,1.229-1.622a4.521,4.521,0,0,0-2.1,3.463" transform="translate(-57.494 -59.72)" fill="#263238"/>
          <path id="Path_100981" data-name="Path 100981" d="M166.219,227.009c-.073.01.8,7.091,1.959,15.816s2.15,15.793,2.224,15.783-.8-7.09-1.96-15.818-2.15-15.791-2.223-15.781" transform="translate(-50.132 -68.468)" fill="#263238"/>
          <path id="Path_100982" data-name="Path 100982" d="M277.407,243.428a3.87,3.87,0,0,0,.015.732,5.57,5.57,0,0,0,.106.853q.043.251.09.53c.039.186.1.379.148.584a15.722,15.722,0,0,0,1.021,2.783,19.08,19.08,0,0,0,1.9,3.092,16.316,16.316,0,0,0,2.532,2.606,10.9,10.9,0,0,0,2.541,1.533c.2.08.379.165.559.23l.52.145.453.123c.14.031.273.038.39.055a3.816,3.816,0,0,0,.73.058,13.045,13.045,0,0,1-2.574-.782,11.337,11.337,0,0,1-2.463-1.551,16.93,16.93,0,0,1-2.475-2.578,20.072,20.072,0,0,1-1.894-3.037,17.081,17.081,0,0,1-1.06-2.726,25.412,25.412,0,0,1-.541-2.648" transform="translate(-83.665 -73.42)" fill="#263238"/>
          <g id="Group_134773" data-name="Group 134773" transform="translate(112.692 189.69)" opacity="0.3">
            <g id="Group_134772" data-name="Group 134772">
              <g id="Group_134771" data-name="Group 134771" clip-path="url(#clip-path-9)">
                <path id="Path_100983" data-name="Path 100983" d="M166.422,311.2c-2.2-1.062-2.7-3.912-2.921-6.343q-.985-10.683-1.97-21.367c-.309-3.349-.46-7.171,1.9-9.565,2.157-2.187,5.584-2.318,8.654-2.309,18.963.055,35.709.608,54.671.664l-.966,33.17Z" transform="translate(-161.359 -271.611)"/>
              </g>
            </g>
          </g>
          <path id="Path_100984" data-name="Path 100984" d="M235.918,278.649,233.9,317.12a2.809,2.809,0,0,1-2.82,2.645l-61.283.107a2.809,2.809,0,0,1-2.819-2.655L164.639,279.4c-.078-1.57,1.04-3.66,2.631-3.691l65.772.006a2.806,2.806,0,0,1,2.876,2.935" transform="translate(-49.656 -83.156)" fill="#e0e0e0"/>
          <path id="Path_100985" data-name="Path 100985" d="M235.865,278.594s0-.048.008-.144a2.63,2.63,0,0,0-.024-.429,2.771,2.771,0,0,0-.726-1.5,2.809,2.809,0,0,0-1.026-.7,3.589,3.589,0,0,0-1.481-.207l-3.726-.013-23.745-.044-35.214-.032h-2.5a2.218,2.218,0,0,0-1.266.323,3.141,3.141,0,0,0-.934.918,4.418,4.418,0,0,0-.77,2.481q.076,1.286.153,2.587.32,5.193.652,10.6c.444,7.2.9,14.65,1.375,22.283l.088,1.43c.041.48.034.94.119,1.441a2.931,2.931,0,0,0,1.847,2.168,3.6,3.6,0,0,0,1.439.192l1.409,0,2.8,0,11-.021,20.8-.044,18.821-.045,4.344-.011,1.062,0a8.976,8.976,0,0,0,1.065-.034,2.931,2.931,0,0,0,1.837-1.015,2.968,2.968,0,0,0,.684-1.937q.051-1,.1-1.986.1-1.965.2-3.842c.508-10.009.918-18.108,1.2-23.712.135-2.8.242-4.968.313-6.448.033-.733.058-1.293.075-1.677s.016-.572.016-.572-.02.193-.043.571-.057.943-.1,1.675c-.084,1.479-.206,3.65-.362,6.445-.305,5.6-.744,13.7-1.288,23.708q-.1,1.876-.205,3.842-.053.983-.107,1.986a2.757,2.757,0,0,1-.64,1.814,2.726,2.726,0,0,1-1.71.941,8.982,8.982,0,0,1-1.035.029h-1.062l-4.344,0-18.821.02-20.8.029-11,.017-2.8,0-1.41,0a3.325,3.325,0,0,1-1.344-.175,2.667,2.667,0,0,1-1.681-1.972c-.076-.436-.074-.934-.113-1.4l-.089-1.43c-.473-7.633-.934-15.085-1.38-22.283q-.336-5.4-.659-10.6-.079-1.3-.155-2.58a4.174,4.174,0,0,1,.724-2.333,2.279,2.279,0,0,1,2-1.135h2.5l35.215-.025,23.744-.04,3.725-.012a3.544,3.544,0,0,1,1.455.189,2.791,2.791,0,0,1,1.749,2.139,5.286,5.286,0,0,1,.043.568" transform="translate(-49.603 -83.102)" fill="#263238"/>
          <path id="Path_100986" data-name="Path 100986" d="M209.854,305.227a3.61,3.61,0,1,0,3.61-3.61,3.61,3.61,0,0,0-3.61,3.61" transform="translate(-63.294 -90.971)" fill="#fff"/>
          <path id="Path_100987" data-name="Path 100987" d="M209.847,305.179c.029,0,.016-.322.163-.869a3.6,3.6,0,0,1,1.319-1.925,3.5,3.5,0,0,1,3.315-.481,3.455,3.455,0,0,1,1.614,1.218,3.473,3.473,0,0,1,0,4.113,3.453,3.453,0,0,1-1.615,1.219,3.5,3.5,0,0,1-3.315-.48,3.6,3.6,0,0,1-1.319-1.925c-.147-.547-.134-.87-.163-.869a.774.774,0,0,0-.015.232,2.839,2.839,0,0,0,.078.662,3.6,3.6,0,0,0,1.305,2.05,3.658,3.658,0,0,0,1.555.71,3.715,3.715,0,0,0,1.958-.149,3.674,3.674,0,0,0,1.74-1.295,3.71,3.71,0,0,0,0-4.421,3.675,3.675,0,0,0-1.74-1.294,3.713,3.713,0,0,0-1.958-.149,3.65,3.65,0,0,0-1.555.71,3.59,3.59,0,0,0-1.306,2.05,2.838,2.838,0,0,0-.078.662.775.775,0,0,0,.015.232" transform="translate(-63.287 -90.923)" fill="#263238"/>
          <path id="Path_100988" data-name="Path 100988" d="M263.273,286.017c-.073,0-.376,6.462-.675,14.438s-.482,14.447-.409,14.45.375-6.461.675-14.439.482-14.445.409-14.448" transform="translate(-79.074 -86.266)" fill="#263238"/>
          <path id="Path_100989" data-name="Path 100989" d="M283.525,203.324c.358-.3-1.211-6.346-1.211-6.346s4.157-6.783,4.266-8.971-1.641-6.674-1.641-6.674l-11.925-3.064s-3.831,7.112-4.6,9.628,1.314,11.05,1.314,11.05l2.02,4.376s6.091,4.814,11.773,0" transform="translate(-80.907 -53.768)" fill="#ffbe9d"/>
          <path id="Path_100990" data-name="Path 100990" d="M286.532,183a26.317,26.317,0,0,0,1.256-2.648c.755-1.791,1.682-3.546,0-4.548a2.2,2.2,0,0,0-1.8-.284s.258-1.507-.643-2.073a1.941,1.941,0,0,0-1.768-.154s.284-2.125-1.012-3.028a3.147,3.147,0,0,0-3.3-.094s1.026-9.305,1.115-9.8c.327-1.809-.343-3.41-2.143-2.964-.659.164-1.026.86-1.8,3.889s-2.017,8.2-2.017,8.2-2.094,3.639-3.083,5.614a47.923,47.923,0,0,0-3.108,7.659c-.421,3.079,1.381,7.154,1.381,7.154l12.676.735s3.762-6.78,4.244-7.663" transform="translate(-80.882 -47.454)" fill="#ffbe9d"/>
          <path id="Path_100991" data-name="Path 100991" d="M292.158,183.951a10.588,10.588,0,0,0-.981,1.37l-1,1.525a6.476,6.476,0,0,0-.545.953,1.946,1.946,0,0,0-.149,1.209,1.217,1.217,0,0,0,.8.939,1.587,1.587,0,0,0,1.136-.14,5.138,5.138,0,0,0,.846-.524c.249-.179.478-.351.683-.512.411-.321.731-.6.946-.793s.325-.316.314-.33c-.026-.03-.528.372-1.372.972a11.106,11.106,0,0,1-1.518.962,1.364,1.364,0,0,1-.955.116.962.962,0,0,1-.621-.749,1.7,1.7,0,0,1,.13-1.049,6.716,6.716,0,0,1,.512-.923l.955-1.556a10.613,10.613,0,0,0,.822-1.47" transform="translate(-87.297 -55.481)" fill="#eb996e"/>
          <path id="Path_100992" data-name="Path 100992" d="M278.042,183.88a5.892,5.892,0,0,0-.923-3.826c-.07.034.281.845.531,1.9s.314,1.931.392,1.93" transform="translate(-83.579 -54.306)" fill="#eb996e"/>
          <path id="Path_100993" data-name="Path 100993" d="M271.251,188.351a8.406,8.406,0,0,1,4.24-2.213,15.968,15.968,0,0,1,4.829-.186c1.289.117,2.762.45,3.349,1.6a2.76,2.76,0,0,1-1.267,3.4,6.422,6.422,0,0,1-3.886.589,16.37,16.37,0,0,0-3.983-.163" transform="translate(-81.812 -56.056)" fill="#ffbe9d"/>
          <path id="Path_100994" data-name="Path 100994" d="M274.534,191.332c0,.024.358-.034,1-.026a26.442,26.442,0,0,1,2.717.258,11.563,11.563,0,0,0,1.9.081,5.162,5.162,0,0,0,2.136-.537,3.283,3.283,0,0,0,1.587-1.844,2.5,2.5,0,0,0,.089-1.32,2.252,2.252,0,0,0-.7-1.172,4.538,4.538,0,0,0-2.437-.946,20.431,20.431,0,0,0-2.409-.146,12.214,12.214,0,0,0-4.03.611,8.041,8.041,0,0,0-2.418,1.3,5.831,5.831,0,0,0-.555.5.983.983,0,0,0-.167.2c.017.018.265-.242.785-.62a8.642,8.642,0,0,1,2.415-1.209,12.427,12.427,0,0,1,3.97-.543,21.424,21.424,0,0,1,2.374.159,4.335,4.335,0,0,1,2.294.885,1.994,1.994,0,0,1,.62,1.032,2.243,2.243,0,0,1-.079,1.18,3.052,3.052,0,0,1-1.454,1.711,5,5,0,0,1-2.034.531,11.826,11.826,0,0,1-1.871-.047,21.3,21.3,0,0,0-2.736-.175,6.59,6.59,0,0,0-.745.069.949.949,0,0,0-.254.061" transform="translate(-81.812 -56.003)" fill="#eb996e"/>
          <path id="Path_100995" data-name="Path 100995" d="M290.126,183.856c-1.334,2.025-2.511,4.252-3.635,6.4a3.976,3.976,0,0,1-1.274,1.656c-.481.3-1.674-.242-2.208-.425l3.662-8.333" transform="translate(-85.358 -55.241)" fill="#ffbe9d"/>
          <path id="Path_100996" data-name="Path 100996" d="M286.594,183.155a3.825,3.825,0,0,0-.325.621l-.811,1.745c-.678,1.485-1.608,3.563-2.647,5.914l-.057.13.135.048a13.389,13.389,0,0,0,1.278.434,2.585,2.585,0,0,0,.56.084.975.975,0,0,0,.3-.031.822.822,0,0,0,.276-.136,2.858,2.858,0,0,0,.737-.788c.376-.591.642-1.184.939-1.735.575-1.108,1.1-2.1,1.56-2.926s.842-1.485,1.109-1.941a5.422,5.422,0,0,0,.4-.717,4.3,4.3,0,0,0-.487.663c-.3.439-.706,1.085-1.185,1.9s-1.025,1.8-1.613,2.9c-.3.545-.582,1.15-.94,1.7a2.623,2.623,0,0,1-.671.716,1.1,1.1,0,0,1-.921.043c-.434-.109-.845-.28-1.256-.426l.078.178c1.031-2.355,1.931-4.445,2.567-5.949l.738-1.778a3.786,3.786,0,0,0,.237-.659" transform="translate(-85.281 -55.241)" fill="#eb996e"/>
          <path id="Path_100997" data-name="Path 100997" d="M286.285,178.914q-1.767,4.428-3.532,8.856a6.032,6.032,0,0,1-.948,1.776,2.058,2.058,0,0,1-1.779.775,2.1,2.1,0,0,1-1.569-2.042,6.62,6.62,0,0,1,.662-2.688,55.933,55.933,0,0,0,2.532-8.288" transform="translate(-83.984 -53.477)" fill="#ffbe9d"/>
          <path id="Path_100998" data-name="Path 100998" d="M281.593,177.3a1.138,1.138,0,0,0-.089.27c-.056.207-.125.467-.209.783-.183.68-.448,1.661-.822,2.861s-.853,2.618-1.462,4.162a8.59,8.59,0,0,0-.74,2.534,2.736,2.736,0,0,0,.267,1.407,2.063,2.063,0,0,0,1.062,1.04,1.786,1.786,0,0,0,1.483-.12,2.79,2.79,0,0,0,1.043-.982,15.64,15.64,0,0,0,1.068-2.407l1.612-4.118,1.064-2.784.277-.763a1.129,1.129,0,0,0,.08-.272,1.149,1.149,0,0,0-.13.253c-.085.2-.192.443-.323.744l-1.143,2.753-1.664,4.1a15.983,15.983,0,0,1-1.058,2.354,2.533,2.533,0,0,1-.946.89,1.521,1.521,0,0,1-1.265.108,1.806,1.806,0,0,1-.921-.909,2.484,2.484,0,0,1-.244-1.275,8.5,8.5,0,0,1,.707-2.46c.6-1.557,1.063-2.987,1.414-4.2s.59-2.2.742-2.891c.074-.344.129-.612.161-.8a1.16,1.16,0,0,0,.036-.281" transform="translate(-83.927 -53.477)" fill="#eb996e"/>
          <path id="Path_100999" data-name="Path 100999" d="M291.912,233.658c-.319-1.171-8.407-25.007-8.407-25.007l-13.325-1.6,5.451,20.538s-.851,5.214,0,8.3,7.662,11.492,11.174,9.47,5.426-10.535,5.107-11.705" transform="translate(-81.489 -62.45)" fill="#ffbe9d"/>
          <path id="Path_101000" data-name="Path 101000" d="M277.984,202.612a1.533,1.533,0,0,0,.761-.1,4.245,4.245,0,0,0,2.669-2.448,1.523,1.523,0,0,0,.165-.749,5.418,5.418,0,0,1-3.6,3.3" transform="translate(-83.843 -60.115)" fill="#eb996e"/>
        </g>
      </g>
    </g>
  </g>
</svg>
