<svg width="458" height="197" viewBox="0 0 458 197" fill="none" xmlns="http://www.w3.org/2000/svg">
<path d="M456.455 196.16H1.54502C1.04502 196.16 0.64502 195.88 0.64502 195.53C0.64502 195.18 1.04502 194.91 1.54502 194.91H456.455C456.955 194.91 457.355 195.19 457.355 195.53C457.355 195.87 456.955 196.16 456.455 196.16Z" fill="#D3E2F9"/>
<path d="M201.015 195.34C209.006 195.34 215.485 188.862 215.485 180.87C215.485 172.879 209.006 166.4 201.015 166.4C193.023 166.4 186.545 172.879 186.545 180.87C186.545 188.862 193.023 195.34 201.015 195.34Z" fill="#498BEE"/>
<path d="M202.805 191.94C200.479 191.938 198.188 191.376 196.126 190.301C194.063 189.226 192.29 187.671 190.956 185.766C189.621 183.861 188.766 181.662 188.461 179.357C188.156 177.051 188.412 174.706 189.205 172.52C188.009 174.203 187.187 176.122 186.794 178.15C186.401 180.177 186.447 182.265 186.928 184.273C187.409 186.281 188.315 188.163 189.583 189.792C190.852 191.421 192.455 192.76 194.284 193.719C196.113 194.677 198.126 195.233 200.187 195.349C202.249 195.465 204.312 195.138 206.237 194.391C208.162 193.644 209.904 192.493 211.348 191.016C212.791 189.54 213.902 187.771 214.605 185.83C213.272 187.719 211.504 189.26 209.45 190.324C207.397 191.387 205.118 191.941 202.805 191.94V191.94Z" fill="#3878D8"/>
<path d="M282.805 195.34C290.797 195.34 297.275 188.862 297.275 180.87C297.275 172.879 290.797 166.4 282.805 166.4C274.813 166.4 268.335 172.879 268.335 180.87C268.335 188.862 274.813 195.34 282.805 195.34Z" fill="#498BEE"/>
<path d="M294.235 172C295.356 175.24 295.29 178.773 294.048 181.969C292.807 185.165 290.471 187.816 287.457 189.451C284.443 191.085 280.947 191.596 277.591 190.892C274.236 190.189 271.239 188.317 269.135 185.61C269.821 187.595 270.932 189.406 272.388 190.918C273.845 192.431 275.614 193.608 277.571 194.368C279.529 195.128 281.628 195.454 283.724 195.321C285.82 195.188 287.861 194.601 289.707 193.6C291.553 192.599 293.159 191.208 294.414 189.524C295.668 187.84 296.541 185.904 296.972 183.848C297.403 181.793 297.381 179.669 296.909 177.623C296.436 175.577 295.524 173.658 294.235 172V172Z" fill="#3878D8"/>
<path d="M241.795 187.73C280.626 187.73 312.105 156.251 312.105 117.42C312.105 78.5892 280.626 47.1104 241.795 47.1104C202.964 47.1104 171.485 78.5892 171.485 117.42C171.485 156.251 202.964 187.73 241.795 187.73Z" fill="#87B7FF"/>
<path d="M307.035 117.42C307.038 128.716 304.108 139.819 298.531 149.643C292.954 159.466 284.923 167.673 275.222 173.461C265.521 179.249 254.484 182.419 243.191 182.66C231.897 182.902 220.734 180.207 210.795 174.84C208.895 173.806 207.055 172.69 205.275 171.49C200.501 168.259 196.173 164.413 192.405 160.05C191.285 158.75 190.205 157.39 189.185 156.05C180.958 144.85 176.522 131.316 176.521 117.419C176.52 103.522 180.956 89.9878 189.182 78.7871C197.408 67.5863 208.995 59.3039 222.255 55.1459C235.515 50.9879 249.756 51.1714 262.905 55.6697C264.545 56.2297 266.155 56.853 267.735 57.5397C273.026 59.829 277.986 62.8154 282.485 66.4197C284.165 67.7597 285.785 69.1797 287.325 70.6797C293.56 76.7635 298.515 84.0325 301.9 92.0592C305.285 100.086 307.031 108.708 307.035 117.42Z" fill="#E1EDFF"/>
<path d="M248.515 117.42C248.515 118.752 248.12 120.054 247.38 121.16C246.64 122.267 245.588 123.13 244.358 123.639C243.128 124.148 241.774 124.281 240.468 124.02C239.163 123.76 237.963 123.118 237.023 122.176C236.082 121.234 235.442 120.033 235.183 118.727C234.924 117.421 235.059 116.068 235.57 114.838C236.081 113.608 236.945 112.558 238.053 111.82C239.161 111.081 240.463 110.688 241.795 110.69C242.678 110.69 243.553 110.865 244.369 111.203C245.185 111.541 245.926 112.037 246.55 112.662C247.174 113.287 247.669 114.029 248.006 114.846C248.343 115.662 248.516 116.537 248.515 117.42V117.42Z" fill="#498BEE"/>
<path d="M242.445 61.6999C244.477 61.6999 246.125 60.0522 246.125 58.0198C246.125 55.9874 244.477 54.3398 242.445 54.3398C240.413 54.3398 238.765 55.9874 238.765 58.0198C238.765 60.0522 240.413 61.6999 242.445 61.6999Z" fill="#498BEE"/>
<path d="M242.445 59.9997C241.62 59.9996 240.818 59.7213 240.17 59.2096C239.523 58.6979 239.066 57.9827 238.875 57.1797C238.806 57.4577 238.773 57.7433 238.775 58.0297C238.749 58.5284 238.825 59.0272 238.998 59.4958C239.171 59.9643 239.437 60.3927 239.781 60.7549C240.125 61.1171 240.539 61.4056 240.998 61.6027C241.456 61.7998 241.951 61.9015 242.45 61.9015C242.949 61.9015 243.444 61.7998 243.902 61.6027C244.361 61.4056 244.775 61.1171 245.119 60.7549C245.463 60.3927 245.729 59.9643 245.902 59.4958C246.075 59.0272 246.151 58.5284 246.125 58.0297C246.122 57.7436 246.089 57.4586 246.025 57.1797C245.832 57.9836 245.374 58.6989 244.724 59.2105C244.075 59.7221 243.272 60.0001 242.445 59.9997V59.9997Z" fill="#3878D8"/>
<path d="M241.795 121.31C240.929 121.31 240.088 121.022 239.405 120.49L211.515 98.8202C211.095 98.5121 210.74 98.1229 210.473 97.6755C210.205 97.2282 210.03 96.7318 209.958 96.2157C209.886 95.6995 209.917 95.1741 210.052 94.6705C210.186 94.1669 210.419 93.6953 210.739 93.2835C211.059 92.8717 211.457 92.5282 211.912 92.2732C212.366 92.0182 212.867 91.8568 213.385 91.7987C213.903 91.7406 214.428 91.7869 214.927 91.9349C215.427 92.0828 215.892 92.3294 216.295 92.6602L244.185 114.34C244.841 114.833 245.325 115.521 245.566 116.305C245.808 117.09 245.795 117.931 245.53 118.707C245.265 119.484 244.761 120.157 244.09 120.63C243.419 121.103 242.616 121.352 241.795 121.34V121.31Z" fill="#FF5B41"/>
<path d="M242.575 120.27C241.71 120.267 240.87 119.979 240.185 119.45L212.305 97.7699C211.591 97.2118 211.093 96.4223 210.898 95.5373C210.703 94.6522 210.822 93.7267 211.235 92.9199C211.089 93.051 210.955 93.1949 210.835 93.3499C210.202 94.1669 209.918 95.202 210.048 96.2277C210.177 97.2534 210.708 98.1858 211.525 98.8199L239.415 120.49C240.231 121.124 241.265 121.409 242.291 121.282C243.316 121.154 244.249 120.625 244.885 119.81C245.025 119.618 245.151 119.418 245.265 119.21C244.532 119.886 243.572 120.264 242.575 120.27Z" fill="#D93F27"/>
<path d="M216.765 168.39C216.452 168.391 216.143 168.316 215.865 168.17C215.398 167.929 215.045 167.513 214.883 167.014C214.72 166.514 214.76 165.97 214.995 165.5L239.995 116.5C240.266 116.089 240.679 115.792 241.155 115.667C241.631 115.541 242.137 115.596 242.576 115.82C243.014 116.044 243.354 116.422 243.531 116.882C243.709 117.341 243.71 117.85 243.535 118.31L218.535 167.31C218.367 167.635 218.113 167.907 217.801 168.098C217.489 168.288 217.131 168.389 216.765 168.39Z" fill="#498BEE"/>
<path d="M243.035 115.86C243.13 116.12 243.17 116.395 243.152 116.671C243.135 116.946 243.061 117.215 242.935 117.46L217.935 166.46C217.766 166.786 217.511 167.06 217.197 167.25C216.883 167.441 216.522 167.541 216.155 167.54C215.843 167.539 215.536 167.467 215.255 167.33C215.138 167.269 215.027 167.195 214.925 167.11C215.067 167.49 215.321 167.818 215.653 168.05C215.985 168.282 216.38 168.408 216.785 168.41C217.151 168.409 217.509 168.308 217.821 168.118C218.133 167.927 218.387 167.655 218.555 167.33L243.555 118.33C243.765 117.922 243.829 117.453 243.734 117.003C243.639 116.553 243.392 116.15 243.035 115.86V115.86Z" fill="#3878D8"/>
<path d="M241.795 175.2C243.827 175.2 245.475 173.552 245.475 171.52C245.475 169.487 243.827 167.84 241.795 167.84C239.763 167.84 238.115 169.487 238.115 171.52C238.115 173.552 239.763 175.2 241.795 175.2Z" fill="#498BEE"/>
<path d="M241.795 174.13C240.913 174.13 240.06 173.813 239.391 173.237C238.723 172.66 238.284 171.863 238.155 170.99C238.145 171.167 238.145 171.344 238.155 171.52C238.155 172.496 238.543 173.432 239.233 174.122C239.923 174.813 240.859 175.2 241.835 175.2C242.811 175.2 243.747 174.813 244.437 174.122C245.127 173.432 245.515 172.496 245.515 171.52C245.514 171.342 245.497 171.165 245.465 170.99C245.337 171.869 244.894 172.672 244.219 173.249C243.544 173.826 242.683 174.14 241.795 174.13Z" fill="#3878D8"/>
<path d="M186.545 121.1C188.577 121.1 190.225 119.453 190.225 117.42C190.225 115.388 188.577 113.74 186.545 113.74C184.513 113.74 182.865 115.388 182.865 117.42C182.865 119.453 184.513 121.1 186.545 121.1Z" fill="#498BEE"/>
<path d="M186.905 119.93C186.422 119.931 185.944 119.837 185.497 119.653C185.051 119.469 184.645 119.199 184.303 118.858C183.962 118.517 183.69 118.112 183.505 117.666C183.32 117.22 183.225 116.742 183.225 116.26C183.215 116.096 183.215 115.933 183.225 115.77C182.963 116.28 182.826 116.846 182.825 117.419C182.84 118.344 183.201 119.229 183.838 119.898C184.476 120.568 185.341 120.973 186.264 121.034C187.186 121.094 188.097 120.805 188.816 120.225C189.536 119.644 190.01 118.814 190.145 117.9C189.845 118.504 189.384 119.014 188.812 119.373C188.24 119.731 187.58 119.924 186.905 119.93V119.93Z" fill="#3878D8"/>
<path d="M297.275 120.81C299.307 120.81 300.955 119.163 300.955 117.13C300.955 115.098 299.307 113.45 297.275 113.45C295.243 113.45 293.595 115.098 293.595 117.13C293.595 119.163 295.243 120.81 297.275 120.81Z" fill="#498BEE"/>
<path d="M300.305 115.12C300.565 115.967 300.51 116.879 300.15 117.688C299.79 118.498 299.149 119.149 298.346 119.523C297.543 119.898 296.632 119.969 295.781 119.724C294.93 119.478 294.196 118.934 293.715 118.19C293.965 119.038 294.513 119.768 295.258 120.244C296.004 120.72 296.896 120.912 297.77 120.783C298.645 120.654 299.444 120.213 300.02 119.542C300.596 118.871 300.91 118.014 300.905 117.13C300.907 116.416 300.699 115.716 300.305 115.12V115.12Z" fill="#3878D8"/>
<path d="M244.645 117.42C244.643 117.983 244.474 118.533 244.16 119C243.846 119.468 243.4 119.831 242.879 120.045C242.358 120.26 241.785 120.315 241.233 120.204C240.681 120.093 240.174 119.82 239.776 119.421C239.379 119.022 239.108 118.514 238.999 117.962C238.89 117.409 238.947 116.837 239.163 116.317C239.379 115.796 239.744 115.352 240.213 115.039C240.681 114.726 241.232 114.56 241.795 114.56C242.552 114.562 243.277 114.865 243.811 115.401C244.345 115.937 244.645 116.663 244.645 117.42V117.42Z" fill="#3878D8"/>
<g opacity="0.5">
<g style="mix-blend-mode:multiply" opacity="0.5">
<path d="M282.485 66.42L205.305 171.49C200.53 168.259 196.203 164.413 192.435 160.05L267.765 57.54C273.045 59.8317 277.995 62.8181 282.485 66.42V66.42Z" fill="#E1EDFF"/>
</g>
<g style="mix-blend-mode:multiply" opacity="0.5">
<path d="M292.475 76.3297L217.715 178.07C215.347 177.129 213.036 176.051 210.795 174.84L287.305 70.6797L292.475 76.3297Z" fill="#E1EDFF"/>
</g>
<g style="mix-blend-mode:multiply" opacity="0.5">
<path d="M262.905 55.6696L189.185 156C186.485 152.336 184.178 148.397 182.305 144.25L249.625 52.6396C254.146 53.1774 258.598 54.1931 262.905 55.6696V55.6696Z" fill="#E1EDFF"/>
</g>
</g>
<path d="M86.305 155.13C86.305 155.13 87.455 173.76 52.355 184.61L13.135 165.47C13.135 165.47 44.785 169.3 53.845 172.93C53.845 172.93 64.955 170.93 71.975 154.49C71.975 154.49 73.505 149.9 86.305 155.13Z" fill="#87B7FF"/>
<path d="M74.715 160.23L70.475 157.68C63.475 171.22 53.845 172.93 53.845 172.93C64.885 173.57 74.715 160.23 74.715 160.23Z" fill="#498BEE"/>
<path d="M107.445 128.04L108.325 129.27L107.725 129.75L107.445 128.04Z" fill="#E5649A"/>
<path d="M113.965 121.75C114.965 120.43 116.645 119.68 118.205 118.89L117.795 117.83C117.795 117.83 116.045 117.16 112.055 117.51C108.065 117.86 109.245 120.95 109.245 120.95C110.135 122.607 111.459 123.989 113.075 124.95C113.775 125.315 114.522 125.58 115.295 125.74C113.975 124.61 113.015 123.29 113.965 121.75Z" fill="#ED7E94"/>
<path d="M112.915 123.38C111.359 123.488 109.82 123.766 108.325 124.21C109.458 124.881 110.666 125.414 111.925 125.8C113.555 125.13 114.795 124.8 114.795 124.8C114.795 124.8 117.475 123.12 112.915 123.38Z" fill="#ED7E94"/>
<path d="M118.525 126L118.145 122.72H119.645L118.205 118.93C116.645 119.72 114.955 120.47 113.965 121.79C113.015 123.33 113.965 124.65 115.295 125.79C116.357 126.01 117.444 126.081 118.525 126V126Z" fill="#FF96A9"/>
<path d="M114.155 120.51L121.785 116.84C121.785 116.84 111.475 114.54 107.645 116.84C103.815 119.14 108.555 123.24 111.165 123.53L112.165 121.7C112.165 121.7 111.305 120.41 112.165 119.8C113.025 119.19 114.155 120.51 114.155 120.51Z" fill="#498BEE"/>
<path d="M103.545 126C103.545 126 103.055 131.64 106.025 129.09C107.818 127.707 109.806 126.598 111.925 125.8C110.666 125.414 109.458 124.881 108.325 124.21C106.686 124.676 105.087 125.275 103.545 126V126Z" fill="#FF96A9"/>
<path d="M71.975 150.53C71.975 150.53 66.865 154.75 70.055 159.72C73.245 164.69 85.375 169.81 112.175 170.32C112.175 170.32 118.175 186.4 139.295 195.32C139.295 195.32 120.475 165.32 119.645 162.7C119.645 162.72 92.775 152.32 71.975 150.53Z" fill="#87B7FF"/>
<path d="M125.085 144.17C125.085 144.17 125.215 141.01 126.025 140.22C126.799 139.57 127.648 139.016 128.555 138.57C128.555 138.57 129.465 138.51 129.045 139.57C128.874 139.897 128.633 140.182 128.339 140.405C128.045 140.628 127.706 140.783 127.345 140.86L127.575 142.58L125.085 144.17Z" fill="#ED7E94"/>
<path d="M122.195 149.94C123.259 149.843 124.25 149.355 124.975 148.57C124.895 148.4 124.825 148.22 124.755 148.05C123.641 148.693 122.474 149.239 121.265 149.68C121.393 149.787 121.542 149.865 121.702 149.91C121.862 149.955 122.031 149.965 122.195 149.94Z" fill="#B2CBF1"/>
<path d="M120.855 145.21C120.855 145.21 120.095 148.69 121.265 149.68C122.473 149.239 123.641 148.693 124.755 148.05C124.317 146.911 124.021 145.722 123.875 144.51C122.635 144.85 120.855 145.21 120.855 145.21Z" fill="white"/>
<path d="M129.855 148.17C130.571 147.726 131.168 147.115 131.595 146.39C132.475 143.62 131.725 139.96 129.715 140.13C126.895 140.37 125.405 143.77 125.025 144.13C124.664 144.323 124.277 144.461 123.875 144.54C124.021 145.751 124.317 146.941 124.755 148.08C125.746 147.492 126.686 146.823 127.565 146.08C128.135 147 128.515 148.94 129.855 148.17Z" fill="#FF96A9"/>
<path d="M129.855 148.17C128.515 148.94 128.135 147.02 127.565 146.07C126.686 146.814 125.746 147.483 124.755 148.07C124.825 148.24 124.895 148.42 124.975 148.59C125.345 148.22 125.575 147.94 125.785 148C126.114 148.081 126.457 148.081 126.785 148C126.785 148 126.545 150.78 129.705 149C130.636 148.4 131.307 147.472 131.585 146.4C131.16 147.121 130.566 147.728 129.855 148.17V148.17Z" fill="#ED7E94"/>
<path d="M63.5151 137.91L61.6051 136C61.6051 136 59.0451 137.881 58.3751 137.781C57.7051 137.681 57.8551 138.36 57.8551 138.36C57.595 137.529 57.1622 136.763 56.5851 136.11C55.7951 135.11 53.6451 134.81 52.1851 135.6C52.205 135.974 52.3148 136.338 52.5051 136.66C52.8323 137.197 53.348 137.591 53.951 137.767C54.5541 137.943 55.201 137.887 55.7651 137.61C55.3751 138.61 54.7651 139.72 55.1851 140.68C55.5301 141.552 56.1856 142.264 57.0251 142.68C59.7151 142.23 63.5151 137.91 63.5151 137.91Z" fill="#FF96A9"/>
<path d="M55.1851 140.71C54.8051 139.71 55.3751 138.6 55.7651 137.64C55.201 137.916 54.5541 137.972 53.951 137.796C53.348 137.621 52.8323 137.226 52.5051 136.69C52.3148 136.367 52.205 136.004 52.1851 135.63C51.7771 135.853 51.4329 136.177 51.1851 136.57C49.9851 138.44 53.7651 142.46 56.4451 142.7C56.6479 142.719 56.8522 142.719 57.0551 142.7C56.2061 142.292 55.5395 141.583 55.1851 140.71V140.71Z" fill="#ED7E94"/>
<path d="M61.605 136L60.015 137C61.0679 137.54 61.9351 138.383 62.505 139.42C63.065 138.6 63.505 137.9 63.505 137.9L61.605 136Z" fill="white"/>
<path d="M113.995 167.61C100.855 167.8 86.275 163.39 86.275 163.39C87.085 160.59 90.595 156.51 92.675 154.26C85.8825 152.48 78.9615 151.233 71.975 150.53C71.975 150.53 66.865 154.75 70.055 159.72C73.245 164.69 85.375 169.81 112.175 170.32C112.175 170.32 118.175 186.4 139.295 195.32C126.905 189.85 113.995 167.61 113.995 167.61Z" fill="#498BEE"/>
<path d="M59.035 140.27C59.0682 140.298 59.1052 140.322 59.145 140.34C59.145 140.34 59.135 140.32 59.035 140.27Z" fill="#ED7E94"/>
<path d="M60.015 137L59.345 137.41C59.11 137.585 58.924 137.818 58.8049 138.086C58.6858 138.354 58.6377 138.648 58.665 138.94C58.6271 139.174 58.6406 139.413 58.7045 139.641C58.7684 139.869 58.8812 140.08 59.035 140.26C59.135 140.31 59.145 140.33 59.145 140.33C59.1052 140.312 59.0682 140.288 59.035 140.26C58.6394 140.086 58.2273 139.952 57.805 139.86C56.515 139.53 55.555 141.06 56.275 141.11C56.995 141.16 60.055 142.4 60.675 141.87C61.3506 141.104 61.9626 140.285 62.505 139.42C61.935 138.383 61.0679 137.54 60.015 137V137Z" fill="#ED7E94"/>
<path d="M107.165 145.88C107.165 145.88 104.165 141.18 105.355 137.07C106.545 132.96 109.545 129.07 106.205 126.54C104.315 125.18 93.205 121.31 80.745 122.13L59.115 135.63C59.115 135.63 62.365 136.97 63.325 138.89L82.665 128.26C82.665 128.26 90.225 129.19 91.855 130.49C91.855 130.49 77.495 139.17 68.115 153.15C68.115 153.15 71.845 158.42 85.245 162.72C85.245 162.72 91.125 142.78 98.175 136.21C98.0987 137.128 98.072 138.05 98.095 138.97C98.865 143.45 101.205 147.54 103.245 151.62C109.695 151.92 116.965 151.75 122.945 148.99C122.382 147.59 121.992 146.126 121.785 144.63C121.785 144.63 111.665 146.64 107.165 145.88Z" fill="#87B7FF"/>
<path d="M99.305 133.11C95.155 135.38 90.665 144.11 90.665 144.11L92.575 144.28C94.0048 141.304 95.9022 138.576 98.195 136.2C98.1188 137.118 98.0921 138.04 98.115 138.96C98.3391 140.266 98.6736 141.551 99.115 142.8C99.2857 142.468 99.3419 142.088 99.275 141.72C98.845 139.84 99.305 133.11 99.305 133.11Z" fill="#498BEE"/>
<path d="M103.245 151.62C101.245 147.54 98.865 143.45 98.095 138.97C98.165 142.76 98.955 149.58 103.345 153.63C103.345 153.63 114.735 153.34 123.445 150.28C123.445 150.28 123.225 149.76 122.945 148.99C116.965 151.75 109.695 151.92 103.245 151.62Z" fill="#498BEE"/>
<path d="M139.295 195.34L149.005 188.28L138.305 193.75L139.295 195.34Z" fill="#498BEE"/>
<path d="M13.135 165.47L6.36499 171.53L14.635 166.2L13.135 165.47Z" fill="#498BEE"/>
<path d="M73.5651 137.83C77.0151 143 83.9051 144.73 89.6551 144.73C96.9051 144.57 107.285 140.19 108.895 132.64C108.722 131.026 108.229 129.462 107.445 128.04C107.445 128.04 110.265 137.77 92.0151 138.89C81.4051 139.54 78.4551 133.53 78.4551 133.53L75.7851 135.41C75.1035 136.268 74.3616 137.077 73.5651 137.83V137.83Z" fill="#E5649A"/>
<path d="M89.6551 144.73C83.9051 144.73 77.0151 143 73.5651 137.83C74.3616 137.077 75.1035 136.268 75.7851 135.41L69.2051 140L75.6151 148.36C75.6151 148.36 110.145 147.04 108.895 132.63C107.305 140.19 96.9051 144.57 89.6551 144.73Z" fill="#DB4A87"/>
<path d="M124.105 148.6C124.105 148.63 124.099 148.659 124.087 148.687C124.076 148.714 124.059 148.739 124.037 148.759C124.016 148.78 123.99 148.796 123.962 148.806C123.935 148.817 123.905 148.821 123.875 148.82C123.817 148.82 123.761 148.797 123.72 148.755C123.678 148.714 123.655 148.658 123.655 148.6C123.648 148.566 123.649 148.532 123.657 148.498C123.665 148.465 123.68 148.434 123.701 148.407C123.723 148.381 123.75 148.359 123.781 148.345C123.812 148.33 123.846 148.322 123.88 148.322C123.914 148.322 123.948 148.33 123.979 148.345C124.01 148.359 124.037 148.381 124.059 148.407C124.08 148.434 124.096 148.465 124.104 148.498C124.112 148.532 124.112 148.566 124.105 148.6V148.6Z" fill="#B2CBF1"/>
<path d="M120.055 150.41C120.062 150.46 120.058 150.511 120.045 150.56C120.032 150.608 120.01 150.654 119.979 150.694C119.948 150.734 119.91 150.767 119.867 150.792C119.823 150.818 119.775 150.834 119.725 150.84C119.675 150.847 119.624 150.844 119.576 150.831C119.527 150.818 119.482 150.795 119.442 150.764C119.402 150.734 119.368 150.696 119.343 150.652C119.318 150.608 119.302 150.56 119.295 150.51C119.282 150.41 119.309 150.308 119.371 150.227C119.433 150.146 119.524 150.094 119.625 150.08C119.726 150.067 119.828 150.094 119.908 150.156C119.989 150.218 120.042 150.31 120.055 150.41Z" fill="#3878D8"/>
<path d="M89.2451 148.75C89.2579 148.859 89.2381 148.97 89.188 149.069C89.138 149.167 89.06 149.249 88.9638 149.303C88.8677 149.357 88.7576 149.382 88.6475 149.373C88.5375 149.365 88.4322 149.325 88.3451 149.257C88.258 149.189 88.1928 149.097 88.1578 148.992C88.1228 148.888 88.1195 148.775 88.1484 148.669C88.1772 148.562 88.2369 148.466 88.32 148.394C88.403 148.321 88.5057 148.274 88.6151 148.26C88.6887 148.25 88.7636 148.255 88.8353 148.274C88.907 148.294 88.9741 148.327 89.0327 148.373C89.0913 148.418 89.1403 148.475 89.1768 148.54C89.2132 148.605 89.2365 148.676 89.2451 148.75V148.75Z" fill="#3878D8"/>
<path d="M122.305 149.75C122.31 149.8 122.306 149.85 122.292 149.898C122.278 149.947 122.254 149.992 122.223 150.031C122.191 150.07 122.152 150.102 122.108 150.126C122.063 150.15 122.015 150.165 121.965 150.17C121.916 150.177 121.865 150.174 121.817 150.161C121.769 150.148 121.724 150.125 121.685 150.094C121.645 150.063 121.613 150.025 121.589 149.981C121.565 149.938 121.55 149.889 121.545 149.84C121.538 149.79 121.541 149.739 121.554 149.69C121.567 149.641 121.589 149.596 121.62 149.555C121.651 149.515 121.689 149.482 121.733 149.457C121.777 149.432 121.825 149.416 121.875 149.41C121.976 149.401 122.077 149.431 122.157 149.494C122.237 149.558 122.29 149.649 122.305 149.75V149.75Z" fill="#3878D8"/>
<path d="M121.165 150.08C121.172 150.129 121.169 150.179 121.156 150.228C121.143 150.276 121.12 150.321 121.09 150.36C121.059 150.399 121.02 150.432 120.977 150.456C120.933 150.48 120.885 150.495 120.835 150.5C120.785 150.508 120.734 150.506 120.684 150.494C120.635 150.482 120.588 150.459 120.548 150.428C120.508 150.398 120.474 150.359 120.45 150.314C120.425 150.27 120.41 150.22 120.405 150.17C120.398 150.12 120.401 150.069 120.414 150.02C120.427 149.971 120.449 149.926 120.48 149.886C120.511 149.846 120.549 149.812 120.593 149.787C120.637 149.762 120.685 149.746 120.735 149.74C120.837 149.731 120.938 149.761 121.017 149.825C121.097 149.888 121.15 149.979 121.165 150.08V150.08Z" fill="#3878D8"/>
<path d="M62.505 139.43C63.035 138.65 63.505 137.97 63.505 137.92L62.425 137.4L62.155 137.49L61.335 137.94C61.7616 138.407 62.1527 138.905 62.505 139.43V139.43Z" fill="#B2CBF1"/>
<path d="M82.565 126.35C78.915 127.35 64.735 135.93 62.165 137.49C62.6402 137.875 63.0345 138.351 63.325 138.89L82.665 128.26C82.665 128.26 89.335 129.43 91.855 130.49C88.565 128.19 82.565 126.35 82.565 126.35Z" fill="#498BEE"/>
<path d="M74.715 173.78C61.505 180.91 52.715 181.68 52.715 181.68L13.135 165.47L52.305 184.61C62.565 181.45 69.715 177.62 74.715 173.78Z" fill="#498BEE"/>
<path d="M84.3051 152.65H84.2451C78.7951 151.54 76.8951 149.65 76.8151 149.65C76.7629 149.595 76.7342 149.522 76.7351 149.447C76.7361 149.371 76.7665 149.299 76.82 149.245C76.8736 149.192 76.9459 149.161 77.0216 149.16C77.0972 149.159 77.1703 149.188 77.2251 149.24C77.2251 149.24 79.1151 151.07 84.3551 152.14C84.3926 152.147 84.4282 152.162 84.46 152.183C84.4919 152.204 84.5192 152.231 84.5406 152.262C84.562 152.294 84.5769 152.329 84.5845 152.367C84.5922 152.404 84.5924 152.443 84.5851 152.48C84.5599 152.533 84.5201 152.577 84.4704 152.607C84.4206 152.637 84.3632 152.652 84.3051 152.65V152.65Z" fill="#3878D8"/>
<path d="M426.815 192.42L430.995 188.37H422.775L426.815 192.42Z" fill="#EBB1A7"/>
<path d="M375.745 192.42L379.935 188.37H371.705L375.745 192.42Z" fill="#EBB1A7"/>
<path d="M366.135 189.05H436.215C436.394 189.048 436.564 188.975 436.689 188.848C436.815 188.72 436.885 188.549 436.885 188.37C436.885 188.192 436.814 188.022 436.689 187.896C436.563 187.771 436.393 187.7 436.215 187.7H366.135C365.957 187.7 365.787 187.771 365.661 187.896C365.536 188.022 365.465 188.192 365.465 188.37C365.465 188.549 365.535 188.72 365.661 188.848C365.786 188.975 365.956 189.048 366.135 189.05Z" fill="#FFD4CD"/>
<path d="M366.135 188.37H436.215C436.332 188.371 436.447 188.34 436.549 188.282C436.651 188.225 436.736 188.141 436.795 188.04C436.855 188.14 436.886 188.254 436.885 188.37C436.885 188.549 436.815 188.72 436.689 188.847C436.564 188.975 436.394 189.047 436.215 189.05H366.135C365.956 189.047 365.786 188.975 365.661 188.847C365.535 188.72 365.465 188.549 365.465 188.37C365.468 188.253 365.502 188.139 365.565 188.04C365.622 188.141 365.705 188.225 365.805 188.283C365.905 188.341 366.019 188.371 366.135 188.37V188.37Z" fill="#EBB1A7"/>
<path d="M423.895 192.42C423.895 192.998 424.066 193.562 424.387 194.042C424.708 194.522 425.164 194.897 425.698 195.118C426.231 195.339 426.818 195.397 427.385 195.284C427.951 195.171 428.471 194.893 428.88 194.485C429.288 194.076 429.566 193.556 429.679 192.99C429.792 192.423 429.734 191.836 429.513 191.303C429.292 190.769 428.917 190.313 428.437 189.992C427.957 189.671 427.393 189.5 426.815 189.5C426.041 189.5 425.298 189.808 424.75 190.355C424.203 190.903 423.895 191.646 423.895 192.42V192.42Z" fill="#E5649A"/>
<path d="M425.145 192.42C425.145 192.75 425.243 193.073 425.426 193.348C425.61 193.622 425.871 193.836 426.176 193.963C426.481 194.089 426.817 194.122 427.141 194.058C427.465 193.993 427.762 193.834 427.996 193.601C428.229 193.367 428.389 193.07 428.453 192.746C428.517 192.422 428.484 192.086 428.358 191.781C428.232 191.476 428.017 191.215 427.743 191.031C427.468 190.848 427.145 190.75 426.815 190.75C426.372 190.75 425.947 190.926 425.634 191.239C425.321 191.552 425.145 191.977 425.145 192.42V192.42Z" fill="#DB4A87"/>
<path d="M372.905 192.42C372.905 192.998 373.076 193.562 373.397 194.042C373.718 194.522 374.174 194.897 374.708 195.118C375.241 195.339 375.828 195.397 376.395 195.284C376.961 195.171 377.481 194.893 377.89 194.485C378.298 194.076 378.576 193.556 378.689 192.99C378.802 192.423 378.744 191.836 378.523 191.303C378.302 190.769 377.927 190.313 377.447 189.992C376.967 189.671 376.403 189.5 375.825 189.5C375.051 189.5 374.308 189.808 373.76 190.355C373.213 190.903 372.905 191.646 372.905 192.42V192.42Z" fill="#E5649A"/>
<path d="M374.155 192.42C374.155 192.75 374.253 193.073 374.436 193.348C374.62 193.622 374.881 193.836 375.186 193.963C375.491 194.089 375.827 194.122 376.151 194.058C376.475 193.993 376.772 193.834 377.006 193.601C377.239 193.367 377.398 193.07 377.463 192.746C377.527 192.422 377.494 192.086 377.368 191.781C377.241 191.476 377.027 191.215 376.753 191.031C376.478 190.848 376.155 190.75 375.825 190.75C375.606 190.75 375.389 190.793 375.186 190.877C374.983 190.961 374.799 191.084 374.644 191.239C374.489 191.394 374.366 191.578 374.282 191.781C374.198 191.984 374.155 192.201 374.155 192.42V192.42Z" fill="#DB4A87"/>
<path d="M381.245 116.15L360.605 107.97L355.525 120.63L376.115 129.19L381.245 116.15Z" fill="#E5649A"/>
<path d="M375.035 113.71C375.035 113.6 376.365 110.94 375.465 108.71C375.219 108.151 374.855 107.653 374.398 107.249C373.94 106.844 373.4 106.545 372.815 106.37C372.228 106.13 371.597 106.016 370.962 106.037C370.328 106.057 369.705 106.212 369.135 106.49C367.749 107.347 366.725 108.68 366.255 110.24L366.825 110.41C367.257 109.008 368.176 107.806 369.415 107.02C369.912 106.781 370.455 106.65 371.007 106.636C371.558 106.622 372.107 106.726 372.615 106.94C373.12 107.086 373.587 107.34 373.982 107.686C374.378 108.031 374.693 108.46 374.905 108.94C375.715 110.94 374.505 113.42 374.495 113.45L375.035 113.71Z" fill="#DB4A87"/>
<path d="M381.245 116.15L368.385 118.58L360.605 107.97L381.245 116.15Z" fill="#DB4A87"/>
<path d="M381.245 116.15L378.355 128.06L376.115 129.19L381.245 116.15Z" fill="#DB4A87"/>
<path d="M368.385 119.65C368.976 119.65 369.455 119.171 369.455 118.58C369.455 117.989 368.976 117.51 368.385 117.51C367.794 117.51 367.315 117.989 367.315 118.58C367.315 119.171 367.794 119.65 368.385 119.65Z" fill="#498BEE"/>
<path d="M394.495 81.3597L396.195 80.5098C396.195 80.5098 397.075 81.3498 398.195 82.5098C397.09 82.3689 396.002 82.121 394.945 81.7697L394.495 81.3597Z" fill="#ED7E94"/>
<path d="M398.215 82.5398C400.345 84.7598 403.415 88.1698 403.535 89.6598C403.735 91.9598 400.975 90.9298 399.835 88.0898C398.915 85.8198 396.075 82.8998 394.965 81.7998C396.022 82.1511 397.11 82.399 398.215 82.5398V82.5398Z" fill="#FF96A9"/>
<path d="M394.995 78.0004C395.375 76.8604 396.925 76.2604 397.665 75.1104L399.435 77.0004L398.535 77.5004L399.435 80.6904L397.225 80.9804C395.645 80.4504 394.305 79.6204 394.995 78.0004Z" fill="#FF96A9"/>
<path d="M390.815 78.1703C390.815 78.1703 392.655 74.3303 396.645 74.0303L397.645 75.1303C396.905 76.2803 395.355 76.8803 394.975 78.0203C394.315 79.6203 395.625 80.4503 397.205 81.0203L394.475 81.3803L390.815 78.1703Z" fill="#ED7E94"/>
<path d="M394.005 77.7702C394.005 77.7702 399.885 73.0302 401.005 66.7002C401.005 66.7002 392.005 72.5802 388.395 77.7702C388.395 77.7702 389.595 80.1602 394.475 81.3602L393.705 79.0002C393.705 79.0002 392.255 78.8002 392.405 77.7502C392.555 76.7002 394.005 77.7702 394.005 77.7702Z" fill="#498BEE"/>
<path d="M405.985 72.2598C408.605 71.4398 410.545 73.6798 412.565 75.0298C412.565 75.0298 412.715 75.0298 412.975 75.1398C413.087 75.8018 413.087 76.4778 412.975 77.1398C409.875 76.1398 406.225 76.6898 403.415 75.2398C403.529 74.555 403.828 73.9146 404.282 73.389C404.735 72.8633 405.324 72.4727 405.985 72.2598V72.2598Z" fill="#FF96A9"/>
<path d="M412.645 78.2598C411.727 77.8014 410.741 77.4941 409.725 77.3498C404.945 76.8198 404.195 77.2698 403.595 76.6698C403.465 76.4617 403.38 76.2287 403.346 75.9859C403.312 75.7431 403.328 75.4958 403.395 75.2598C406.205 76.7098 409.855 76.1498 412.955 77.1598C412.886 77.5352 412.782 77.9034 412.645 78.2598V78.2598Z" fill="#ED7E94"/>
<path d="M414.105 77.6201C414.056 78.0487 413.976 78.4732 413.865 78.8902C413.455 78.6602 413.045 78.4502 412.645 78.2602C412.782 77.9038 412.886 77.5356 412.955 77.1602C413.298 77.273 413.632 77.41 413.955 77.5702L414.105 77.6201Z" fill="#B1C5E3"/>
<path d="M412.975 75.1396L413.975 75.4596C414.105 76.172 414.135 76.8989 414.065 77.6196L413.945 77.5696C413.622 77.4095 413.288 77.2725 412.945 77.1596C413.069 76.4928 413.079 75.8098 412.975 75.1396V75.1396Z" fill="#98B0D5"/>
<path d="M371.525 103.27C371.87 103.168 372.205 103.034 372.525 102.87C372.465 103.31 372.405 103.75 372.375 104.19C372.375 104.19 373.565 103.89 373.565 105.01C373.565 105.01 377.905 105.76 375.365 109.42L375.135 109.74C374.083 109.005 373.212 108.04 372.587 106.92C371.962 105.799 371.599 104.551 371.525 103.27V103.27Z" fill="#ED7E94"/>
<path d="M369.025 103.49C369.865 103.587 370.715 103.512 371.525 103.27C371.595 104.548 371.954 105.794 372.574 106.915C373.194 108.035 374.059 109.001 375.105 109.74C372.635 113.09 370.105 113.16 369.105 105.98C369.02 105.152 368.993 104.32 369.025 103.49V103.49Z" fill="#FF96A9"/>
<path d="M414.105 77.6201C417.014 79.0786 419.444 81.3416 421.105 84.1401C418.867 82.1649 416.446 80.407 413.875 78.8901C413.982 78.4729 414.059 78.0485 414.105 77.6201V77.6201Z" fill="#2A1F5E"/>
<path d="M431.305 85.6201L431.455 85.7901C425.327 90.1578 418.349 93.1899 410.975 94.6901L409.695 94.9501C409.37 94.0324 408.919 93.1641 408.355 92.3701C416.305 91.7601 424.505 90.0001 431.305 85.6201Z" fill="#2A1F5E"/>
<path d="M394.845 92.0699C394.915 92.8899 394.945 93.7098 394.955 94.5298C394.444 94.342 393.957 94.0935 393.505 93.7899C393.505 93.7899 386.255 88.4898 378.175 88.8598C375.68 92.8024 373.837 97.121 372.715 101.65C372.319 101.785 371.91 101.882 371.495 101.94C372.991 97.0044 374.901 92.204 377.205 87.5898C383.305 87.9998 389.165 89.9999 394.845 92.0699Z" fill="#2A1F5E"/>
<path d="M369.115 101.84C369.795 93.6505 373.765 81.7605 373.765 81.7605C373.765 81.7605 393.155 84.9705 401.025 87.7605C409.105 90.5905 416.535 88.1405 422.435 85.3705C422.435 85.3705 421.925 84.8905 421.095 84.1605C419.434 81.3619 417.004 79.099 414.095 77.6405C414.165 76.9198 414.135 76.1928 414.005 75.4805C417.435 76.5605 426.135 79.7705 431.245 85.6405C424.495 89.9705 416.245 91.7805 408.295 92.3905C408.859 93.1844 409.31 94.0527 409.635 94.9705C403.735 96.0705 399.635 95.7705 397.105 95.1905C396.37 95.0303 395.648 94.8164 394.945 94.5504C394.945 93.7304 394.945 92.9105 394.835 92.0905C389.155 90.0005 383.325 88.0904 377.195 87.6104C374.891 92.2246 372.981 97.025 371.485 101.96C370.694 102.052 369.893 102.011 369.115 101.84V101.84Z" fill="#498BEE"/>
<path d="M369.025 103.49C369.025 102.957 369.055 102.407 369.115 101.84C369.891 102.003 370.688 102.037 371.475 101.94C371.461 102.384 371.478 102.828 371.525 103.27C370.715 103.512 369.865 103.587 369.025 103.49V103.49Z" fill="#98B0D5"/>
<path d="M371.475 101.94C371.898 101.888 372.313 101.791 372.715 101.65C372.635 102.06 372.565 102.46 372.495 102.87C372.175 103.034 371.84 103.168 371.495 103.27C371.458 102.828 371.452 102.384 371.475 101.94Z" fill="#B1C5E3"/>
<path d="M404.955 88.7305C407.393 91.4176 409.198 94.6173 410.236 98.0941C411.275 101.571 411.52 105.236 410.955 108.82C408.955 120.98 406.955 126.77 406.955 126.77L395.115 120.09L404.955 88.7305Z" fill="#498BEE"/>
<path d="M391.555 159.06C392.305 147.85 395.895 137.38 399.485 126.77C400.196 124.778 401.142 122.878 402.305 121.11C402.652 121.603 402.95 122.129 403.195 122.68C403.195 122.68 392.935 159.57 395.735 186.17C393.035 177.38 390.835 168.43 391.555 159.06Z" fill="#498BEE"/>
<path d="M393.105 119.39C393.105 119.39 398.975 116.49 402.305 121.11C401.142 122.877 400.195 124.777 399.485 126.77C395.895 137.38 392.305 147.85 391.555 159.06C390.835 168.43 393.035 177.38 395.735 186.17V186.28C395.735 186.28 374.165 134.44 393.105 119.39Z" fill="#2A1F5E"/>
<path d="M386.585 126.7C389.905 122.59 393.105 119.39 393.105 119.39C395.575 117.88 398.605 119.25 400.685 120.66C399.235 124.53 397.355 128.19 395.595 131.85C392.242 130.835 389.161 129.074 386.585 126.7V126.7Z" fill="#2A1F5E"/>
<path d="M380.305 136.19C381.998 132.789 384.093 129.603 386.545 126.7C389.119 129.073 392.195 130.834 395.545 131.85C397.305 128.19 399.185 124.53 400.635 120.66C401.528 121.253 402.368 121.922 403.145 122.66C394.975 144.86 379.995 146.33 379.995 146.33C369.675 140.8 352.335 125.85 352.335 125.85C373.915 128.86 380.305 136.19 380.305 136.19Z" fill="#498BEE"/>
<path d="M402.635 88.1902C403.505 88.4502 404.955 88.7302 404.955 88.7302C404.955 88.7302 413.145 93.8502 411.195 106.73C410.595 110.73 406.135 118.08 404.145 121.2C400.145 121.9 396.475 119.83 393.555 117.09L399.405 87.2002L402.635 88.1902Z" fill="#98B0D5"/>
<path d="M404.145 121.21C403.565 122.13 403.195 122.68 403.195 122.68C403.195 122.68 401.575 125.37 393.105 119.39L393.555 117.1C396.475 119.84 400.105 121.91 404.145 121.21Z" fill="#2A1F5E"/>
<path d="M393.505 93.7899C393.194 93.0199 393.002 92.2074 392.935 91.3799L394.845 92.0699C395.161 95.7622 394.85 99.4813 393.925 103.07C394.626 99.9954 394.48 96.7885 393.505 93.7899Z" fill="#2A1F5E"/>
<path d="M394.845 92.0696L392.935 91.3796C392.762 89.4201 393.318 87.4656 394.495 85.8896C394.495 85.8896 398.955 86.9396 399.405 87.2096C399.405 87.2096 411.645 100.05 395.595 130.06C395.595 130.06 388.015 128.66 382.335 117.89C382.335 117.89 390.515 113.89 392.205 109.22C392.942 107.212 393.517 105.149 393.925 103.05C394.847 99.4675 395.158 95.7553 394.845 92.0696Z" fill="#498BEE"/>
<path d="M407.305 88.9998L412.205 92.5197L411.465 95.3597L415.675 95.9897C415.675 95.9897 414.745 106.11 409.935 114.36C409.935 114.36 410.935 108.77 411.105 107.5C411.38 104.754 411.191 101.982 410.545 99.2997C409.999 97.2512 409.22 95.2718 408.225 93.3997C407.375 91.9497 405.885 89.4698 404.925 88.7598C405.714 88.8815 406.508 88.9616 407.305 88.9998V88.9998Z" fill="#2A1F5E"/>
<path d="M394.995 184.38L407.255 187.7H392.305L394.995 184.38Z" fill="#498BEE"/>
<path d="M353.855 126.08L353.055 123.28L344.305 131.77L353.855 126.08Z" fill="#498BEE"/>
<path d="M409.265 77.3003L408.535 74.0303L400.215 74.8003L401.505 79.7403L409.265 77.3003Z" fill="#E1EDFF"/>
<path d="M401.545 116.15C402.011 108.59 400.204 101.063 396.355 94.5397L400.215 92.9697L397.525 91.5497L397.665 86.6797C398.257 86.8128 398.839 86.9899 399.405 87.2097C399.405 87.2097 407.815 95.9997 401.545 116.15Z" fill="#2A1F5E"/>
<path d="M395.745 122C395.775 122.001 395.805 121.996 395.833 121.983C395.861 121.971 395.885 121.953 395.905 121.93C395.927 121.91 395.944 121.886 395.956 121.86C395.967 121.833 395.973 121.804 395.973 121.775C395.973 121.746 395.967 121.717 395.956 121.69C395.944 121.664 395.927 121.64 395.905 121.62L394.105 119.83C392.784 118.274 391.742 116.501 391.025 114.59C391.001 114.537 390.958 114.494 390.905 114.47C390.851 114.446 390.791 114.443 390.735 114.46C390.707 114.47 390.681 114.486 390.66 114.506C390.638 114.526 390.62 114.55 390.608 114.577C390.596 114.604 390.589 114.634 390.589 114.663C390.588 114.693 390.594 114.723 390.605 114.75C391.34 116.723 392.416 118.551 393.785 120.15L395.585 121.94C395.63 121.978 395.686 122 395.745 122V122Z" fill="#2A1F5E"/>
<path d="M398.515 95.44L399.825 94.84C399.836 94.8258 399.843 94.8082 399.843 94.79C399.843 94.7718 399.836 94.7542 399.825 94.74C399.825 94.74 399.765 94.69 399.725 94.74L398.425 95.35C398.419 95.3556 398.414 95.3625 398.41 95.3703C398.407 95.3781 398.405 95.3865 398.405 95.395C398.405 95.4035 398.407 95.4119 398.41 95.4197C398.414 95.4274 398.419 95.4344 398.425 95.44C398.438 95.449 398.454 95.4539 398.47 95.4539C398.486 95.4539 398.502 95.449 398.515 95.44V95.44Z" fill="#498BEE"/>
<path d="M400.115 117.57C400.124 117.574 400.135 117.576 400.145 117.576C400.155 117.576 400.166 117.574 400.175 117.57C400.189 117.555 400.197 117.535 400.197 117.515C400.197 117.494 400.189 117.475 400.175 117.46L398.985 116.64C398.971 116.628 398.953 116.622 398.935 116.622C398.917 116.622 398.899 116.628 398.885 116.64C398.877 116.645 398.87 116.653 398.865 116.661C398.861 116.67 398.858 116.68 398.858 116.69C398.858 116.7 398.861 116.709 398.865 116.718C398.87 116.727 398.877 116.734 398.885 116.74L400.075 117.57H400.115Z" fill="#2A1F5E"/>
<path d="M399.035 119.6H399.095C399.107 119.585 399.114 119.565 399.114 119.545C399.114 119.525 399.107 119.506 399.095 119.49L397.905 118.67C397.89 118.656 397.87 118.648 397.85 118.648C397.829 118.648 397.81 118.656 397.795 118.67C397.784 118.685 397.777 118.702 397.777 118.72C397.777 118.739 397.784 118.756 397.795 118.77L398.995 119.6H399.035Z" fill="#2A1F5E"/>
<path d="M370.015 98.0003C370.015 98.1703 370.015 98.3203 370.165 98.3403C370.315 98.3603 370.385 98.2403 370.415 98.0703C370.445 97.9003 370.415 97.7503 370.265 97.7303C370.115 97.7103 370.035 97.8603 370.015 98.0003Z" fill="#2A1F5E"/>
<path d="M369.565 99.9998C369.565 100.17 369.565 100.32 369.715 100.34C369.865 100.36 369.945 100.24 369.975 100.07C370.005 99.8998 369.975 99.7498 369.825 99.7298C369.675 99.7098 369.595 99.7798 369.565 99.9998Z" fill="#2A1F5E"/>
<path d="M369.725 98.9999C369.725 99.1699 369.725 99.3199 369.885 99.3399C370.045 99.3599 370.105 99.2399 370.135 99.0699C370.165 98.8999 370.135 98.7499 369.985 98.7299C369.835 98.7099 369.755 98.8199 369.725 98.9999Z" fill="#2A1F5E"/>
<path d="M369.305 102.65C369.305 102.8 369.305 102.93 369.435 102.94C369.565 102.95 369.625 102.86 369.645 102.71C369.665 102.654 369.662 102.593 369.638 102.539C369.614 102.485 369.57 102.442 369.515 102.42C369.415 102.41 369.305 102.51 369.305 102.65Z" fill="#B1C5E3"/>
<path d="M403.195 89.0098L402.775 90.4698L404.535 91.5898L404.795 90.1298L403.195 89.0098Z" fill="#DB4A87"/>
<path d="M396.795 101.34C399.635 100.34 402.325 98.4996 403.525 95.8096C404.203 94.236 404.455 92.5114 404.255 90.8096C413.015 103.01 387.025 109.74 387.025 109.74L379.305 105.25C385.305 105.55 391.305 103.45 396.795 101.34Z" fill="#DB4A87"/>
<path d="M403.525 95.8098C402.325 98.4998 399.635 100.3 396.795 101.34C391.275 103.45 385.305 105.55 379.375 105.22L384.035 99.9898C404.965 100.92 403.875 90.2998 403.875 90.2998L404.255 90.8098C404.455 92.5117 404.203 94.2363 403.525 95.8098V95.8098Z" fill="#E5649A"/>
<path d="M408.855 75.4502L401.505 79.7402L409.265 77.3002L408.855 75.4502Z" fill="#B2CBF1"/>
<path d="M406.895 96.9401C406.895 97.2001 407.045 97.4101 407.145 97.3901C407.245 97.3701 407.285 97.1501 407.245 96.8801C407.205 96.6101 407.085 96.4101 406.995 96.4301C406.905 96.4501 406.855 96.6701 406.895 96.9401Z" fill="#B1C5E3"/>
<path d="M407.595 103.91C407.689 103.91 407.765 103.69 407.765 103.42C407.765 103.149 407.689 102.93 407.595 102.93C407.501 102.93 407.425 103.149 407.425 103.42C407.425 103.69 407.501 103.91 407.595 103.91Z" fill="#B1C5E3"/>
<path d="M406.065 110.53C405.995 110.79 406.015 111.02 406.065 111.05C406.115 111.08 406.295 110.88 406.365 110.62C406.435 110.36 406.365 110.13 406.315 110.1C406.265 110.07 406.135 110.27 406.065 110.53Z" fill="#B1C5E3"/>
<path d="M402.825 118.14C402.725 118.39 402.705 118.62 402.825 118.65C402.945 118.68 403.075 118.52 403.175 118.27C403.275 118.02 403.295 117.79 403.175 117.76C403.055 117.73 402.925 117.89 402.825 118.14Z" fill="#B1C5E3"/>
<path d="M219.865 28.4196C223.327 30.2606 227.029 31.607 230.865 32.4196L229.575 33.8796C226.188 33.5472 222.894 32.5804 219.865 31.0296C216.504 29.335 213.524 26.9737 211.105 24.0896C213.713 21.0142 216.651 18.2342 219.865 15.7996C220.865 15.0196 221.955 14.2496 223.105 13.5096C226.918 10.9463 231.173 9.112 235.655 8.09961C231.722 9.50318 227.948 11.3165 224.395 13.5096C222.824 14.4836 221.311 15.5488 219.865 16.6996C217.162 18.8323 214.734 21.2909 212.635 24.0196C214.954 25.6314 217.368 27.1008 219.865 28.4196V28.4196Z" fill="#B1C5E3"/>
<path d="M225.085 19.1399C226.644 18.2598 228.331 17.6288 230.085 17.2698H232.085C232.085 16.7098 231.985 16.1498 231.925 15.5898C229.471 16.4037 227.163 17.602 225.085 19.1399V19.1399Z" fill="#B1C5E3"/>
<path d="M247.985 14.71C247.944 15.5708 247.834 16.4269 247.655 17.27H251.195C251.195 17.27 261.345 21.65 263.465 23.91C258.724 27.1918 253.393 29.5247 247.765 30.78L248.495 31.78C254.695 30.26 260.685 27.94 265.805 23.78C260.274 20.0129 254.286 16.965 247.985 14.71V14.71Z" fill="#B1C5E3"/>
<path d="M271.575 24.2796C269.392 26.0253 266.992 27.4807 264.435 28.6096C259.829 30.7498 255.113 32.6425 250.305 34.2796L248.485 31.7796C254.209 30.5248 259.628 28.1454 264.425 24.7796C264.885 24.4496 265.345 24.0896 265.795 23.7296C265.335 23.4196 264.885 23.1096 264.425 22.8196C259.276 19.4751 253.755 16.7402 247.975 14.6696C247.939 15.5308 247.828 16.3873 247.645 17.2296H232.085C232.025 16.6696 231.965 16.1096 231.915 15.5496C229.465 16.3644 227.16 17.5626 225.085 19.0996C223.199 20.1443 221.446 21.4136 219.865 22.8796C219.305 23.3996 218.995 23.7296 218.995 23.7296C219.222 24.1808 219.515 24.5954 219.865 24.9596C223.195 28.5096 232.355 30.7396 232.355 30.7396L230.865 32.4196C227.029 31.607 223.327 30.2605 219.865 28.4196C217.369 27.1137 214.955 25.6577 212.635 24.0596C214.734 21.3309 217.162 18.8722 219.865 16.7396C221.311 15.5887 222.824 14.5236 224.395 13.5496C227.948 11.3564 231.722 9.54316 235.655 8.13959C237.467 7.75782 239.313 7.56345 241.165 7.55957C248.065 7.55957 254.355 10.2896 259.405 13.5596C263.961 16.5265 268.061 20.1411 271.575 24.2896V24.2796Z" fill="#98B0D5"/>
<path d="M234.615 44.07H251.055L251.105 34.35C245.255 33.93 239.495 33.16 233.665 33.17C234.015 36.8 234.305 40.44 234.615 44.07Z" fill="#B1C5E3"/>
<path d="M251.855 13.5498H228.995L229.835 16.3798C230.512 16.0751 231.207 15.8113 231.915 15.5898C232.475 21.4498 233.095 27.3098 233.665 33.1698C239.495 33.1698 245.255 33.9298 251.105 34.3498L251.195 17.2698L251.855 13.5498Z" fill="#98B0D5"/>
<path d="M241.505 12.6701L245.645 16.0801L245.115 7.12012H238.055L237.365 16.0801L241.505 12.6701Z" fill="#B1C5E3"/>
<path d="M238.055 8.86984C240.185 11.2198 243.055 10.9198 245.645 9.86984C245.695 9.71984 245.745 9.56986 245.785 9.41986C245.355 9.53986 244.925 9.63985 244.475 9.71985C241.845 10.0098 238.635 9.71984 237.475 7.08984C237.274 7.75077 236.963 8.37291 236.555 8.92984C237.465 11.9298 239.285 14.5398 240.975 14.9298C240.058 14.21 239.317 13.2895 238.811 12.239C238.305 11.1885 238.046 10.0359 238.055 8.86984V8.86984Z" fill="#ED7E94"/>
<path d="M245.645 9.90039C243.095 10.9004 240.185 11.2204 238.055 8.90039C238.041 10.0707 238.295 11.2286 238.8 12.2847C239.305 13.3407 240.045 14.2665 240.965 14.9904C241.096 15.0217 241.23 15.0385 241.365 15.0404C242.975 15.0004 244.705 12.7004 245.645 9.90039Z" fill="#FF96A9"/>
<path d="M241.045 0.110352C235.825 0.110352 235.285 4.83036 236.545 8.96036C236.953 8.40343 237.264 7.78128 237.465 7.12036C238.635 9.75036 241.845 10.0404 244.465 9.75037C244.915 9.67037 245.345 9.57038 245.775 9.45038C247.055 5.22038 246.475 0.110352 241.045 0.110352Z" fill="#498BEE"/>
<path d="M229.835 16.3799L230.095 17.2698L232.935 44.0699H234.615C233.895 34.5799 232.825 25.0698 231.915 15.5898C231.206 15.8113 230.512 16.0752 229.835 16.3799V16.3799Z" fill="#B1C5E3"/>
<path d="M241.505 16.5101C241.693 16.5101 241.845 16.3579 241.845 16.1701C241.845 15.9823 241.693 15.8301 241.505 15.8301C241.317 15.8301 241.165 15.9823 241.165 16.1701C241.165 16.3579 241.317 16.5101 241.505 16.5101Z" fill="#B1C5E3"/>
<g style="mix-blend-mode:soft-light" opacity="0.6">
<path d="M264.435 17.2398V33.9398C264.435 34.2369 264.317 34.5217 264.107 34.7318C263.897 34.9418 263.612 35.0598 263.315 35.0598H220.985C220.688 35.0598 220.403 34.9418 220.193 34.7318C219.983 34.5217 219.865 34.2369 219.865 33.9398V15.8398C220.865 15.0598 221.955 14.2898 223.105 13.5498H259.405C261.151 14.6831 262.83 15.9151 264.435 17.2398V17.2398Z" fill="#FCEE21"/>
</g>
<path d="M257.765 38.1804H226.525C226.228 38.1804 225.943 38.0624 225.733 37.8524C225.523 37.6423 225.405 37.3575 225.405 37.0604C225.405 36.7634 225.523 36.4785 225.733 36.2685C225.943 36.0584 226.228 35.9404 226.525 35.9404H257.765C258.062 35.9404 258.347 36.0584 258.557 36.2685C258.767 36.4785 258.885 36.7634 258.885 37.0604C258.885 37.2075 258.856 37.3532 258.8 37.489C258.743 37.6249 258.661 37.7484 258.557 37.8524C258.453 37.9564 258.33 38.0389 258.194 38.0952C258.058 38.1515 257.912 38.1804 257.765 38.1804V38.1804Z" fill="#498BEE"/>
<path d="M258.205 37.2997H226.965C226.668 37.2997 226.383 37.1817 226.173 36.9716C225.963 36.7616 225.845 36.4767 225.845 36.1797C225.657 36.3199 225.518 36.5162 225.448 36.7403C225.379 36.9645 225.382 37.2049 225.457 37.4271C225.533 37.6493 225.677 37.8419 225.869 37.9771C226.061 38.1123 226.29 38.1832 226.525 38.1797H257.765C258.06 38.1797 258.344 38.0631 258.553 37.8552C258.763 37.6473 258.882 37.365 258.885 37.0697C258.689 37.2176 258.451 37.2982 258.205 37.2997Z" fill="#2E2363"/>
<path d="M255.055 18.9004H229.235C227.12 18.9004 225.405 20.6152 225.405 22.7304V31.2304C225.405 33.3457 227.12 35.0604 229.235 35.0604H255.055C257.17 35.0604 258.885 33.3457 258.885 31.2304V22.7304C258.885 20.6152 257.17 18.9004 255.055 18.9004Z" fill="#498BEE"/>
<path d="M234.055 35.0596H228.735V35.9396H234.055V35.0596Z" fill="#2E2363"/>
<path d="M255.005 35.0596H249.685V35.9396H255.005V35.0596Z" fill="#2E2363"/>
<path d="M244.805 27.0003C244.876 27.5405 244.781 28.0896 244.532 28.5743C244.283 29.0591 243.893 29.4564 243.412 29.7134C242.932 29.9704 242.384 30.0749 241.843 30.0129C241.302 29.9508 240.792 29.7253 240.382 29.3663C239.972 29.0072 239.682 28.5318 239.549 28.0033C239.416 27.4749 239.447 26.9185 239.639 26.4084C239.83 25.8982 240.173 25.4586 240.621 25.1481C241.068 24.8376 241.6 24.6709 242.145 24.6703C242.806 24.6317 243.455 24.8545 243.952 25.2904C244.45 25.7263 244.756 26.3405 244.805 27.0003V27.0003Z" fill="#498BEE"/>
<path d="M218.305 37.8604C214.015 41.9504 215.305 61.0504 238.365 83.2104C238.365 83.2104 238.365 83.0904 238.295 82.8504C233.465 75.7704 228.365 68.7304 224.925 60.8504C221.905 53.6304 217.215 46.0004 218.305 37.8604Z" fill="#498BEE"/>
<path d="M268.725 37.0601C266.535 30.7801 255.675 40.3201 241.845 40.3201C237.955 40.3201 226.075 36.7201 220.035 37.0601C219.374 37.1073 218.753 37.3914 218.285 37.8601C217.215 45.9601 221.905 53.6301 224.905 60.8601C228.345 68.7201 233.445 75.7601 238.275 82.8601C237.715 79.7401 233.525 56.9501 229.575 49.3401H254.575C254.575 49.3401 248.005 68.9101 248.575 83.2201C248.565 83.2101 273.655 51.1901 268.725 37.0601Z" fill="#87B7FF"/>
<path d="M248.545 80.1396L255.135 92.7096L246.355 82.3396L248.545 80.1396Z" fill="#498BEE"/>
<path d="M248.885 80.7896C248.885 73.4696 257.985 43.7095 257.985 43.7095C247.745 47.7036 236.351 47.5458 226.225 43.2695C227.497 45.1998 228.617 47.2259 229.575 49.3295H254.575C254.575 49.3295 248.795 66.1896 248.575 80.1396L248.885 80.7896Z" fill="#498BEE"/>
</svg>
