<?xml version="1.0" encoding="UTF-8"?>
<svg xmlns="http://www.w3.org/2000/svg" xmlns:xlink="http://www.w3.org/1999/xlink" width="24px" height="24px" viewBox="0 0 24 24" version="1.1">
<g id="surface1">
<path style=" stroke:none;fill-rule:nonzero;fill:rgb(54.509804%,87.058824%,77.254902%);fill-opacity:1;" d="M 2 16.355469 L 14.835938 16.355469 C 14.515625 16.121094 14.226562 15.847656 13.972656 15.542969 L 6.882812 15.542969 C 6.300781 15.542969 5.824219 15.070312 5.824219 14.488281 L 5.824219 4.28125 L 2.992188 4.28125 C 2.1875 4.28125 1.53125 4.9375 1.53125 5.746094 L 1.53125 16.824219 C 1.53125 16.566406 1.742188 16.355469 2 16.355469 Z M 20.632812 16.824219 L 20.632812 16.257812 C 20.5625 16.316406 20.484375 16.371094 20.410156 16.425781 C 20.542969 16.507812 20.632812 16.65625 20.632812 16.824219 Z M 16.5625 7.816406 C 16.917969 7.730469 17.289062 7.6875 17.667969 7.6875 C 18.789062 7.6875 19.816406 8.070312 20.632812 8.714844 L 20.632812 5.746094 C 20.632812 4.9375 19.976562 4.28125 19.171875 4.28125 L 16.5625 4.28125 Z M 16.5625 7.816406 "/>
<path style=" stroke:none;fill-rule:nonzero;fill:rgb(44.705882%,41.960784%,57.647059%);fill-opacity:1;" d="M 8.648438 19.304688 L 8.648438 22.394531 L 7.152344 22.394531 C 6.890625 22.394531 6.683594 22.601562 6.683594 22.863281 C 6.683594 23.121094 6.890625 23.332031 7.152344 23.332031 L 15.015625 23.332031 C 15.273438 23.332031 15.484375 23.121094 15.484375 22.863281 C 15.484375 22.601562 15.273438 22.394531 15.015625 22.394531 L 13.515625 22.394531 L 13.515625 19.304688 Z M 8.648438 19.304688 "/>
<path style=" stroke:none;fill-rule:nonzero;fill:rgb(59.607843%,56.078431%,76.862745%);fill-opacity:1;" d="M 20.410156 16.425781 C 19.632812 16.96875 18.6875 17.285156 17.667969 17.285156 C 16.609375 17.285156 15.628906 16.941406 14.835938 16.355469 L 2 16.355469 C 1.742188 16.355469 1.53125 16.566406 1.53125 16.824219 L 1.53125 17.84375 C 1.53125 18.648438 2.1875 19.304688 2.992188 19.304688 L 19.171875 19.304688 C 19.976562 19.304688 20.632812 18.648438 20.632812 17.84375 L 20.632812 16.824219 C 20.632812 16.65625 20.542969 16.507812 20.410156 16.425781 Z M 20.410156 16.425781 "/>
<path style=" stroke:none;fill-rule:nonzero;fill:rgb(92.156863%,88.627451%,52.941176%);fill-opacity:1;" d="M 13.511719 4.277344 L 14.722656 4.277344 C 14.980469 4.277344 15.191406 4.484375 15.191406 4.746094 L 15.191406 8.378906 C 15.609375 8.125 16.074219 7.929688 16.5625 7.816406 L 16.5625 3.964844 C 16.5625 3.382812 16.089844 2.910156 15.507812 2.910156 L 13.488281 2.910156 C 13.503906 2.96875 13.511719 3.027344 13.511719 3.085938 Z M 5.824219 14.488281 C 5.824219 15.070312 6.300781 15.542969 6.882812 15.542969 L 13.972656 15.542969 C 13.636719 15.140625 13.367188 14.679688 13.179688 14.179688 L 7.667969 14.179688 C 7.40625 14.179688 7.199219 13.96875 7.199219 13.710938 L 7.199219 4.746094 C 7.199219 4.484375 7.40625 4.277344 7.667969 4.277344 L 8.652344 4.277344 L 8.652344 3.085938 C 8.652344 3.027344 8.664062 2.96875 8.679688 2.910156 L 6.882812 2.910156 C 6.300781 2.910156 5.824219 3.382812 5.824219 3.964844 Z M 5.824219 14.488281 "/>
<path style=" stroke:none;fill-rule:nonzero;fill:rgb(63.921569%,65.882353%,76.862745%);fill-opacity:1;" d="M 8.652344 4.277344 L 8.652344 5.035156 C 8.652344 5.402344 8.953125 5.699219 9.320312 5.699219 L 12.847656 5.699219 C 13.214844 5.699219 13.511719 5.402344 13.511719 5.035156 L 13.511719 3.085938 C 13.511719 3.027344 13.503906 2.96875 13.488281 2.910156 C 13.410156 2.628906 13.152344 2.425781 12.847656 2.425781 L 12.496094 2.425781 C 12.53125 2.265625 12.539062 2.097656 12.519531 1.933594 C 12.441406 1.277344 11.902344 0.75 11.246094 0.679688 C 10.832031 0.632812 10.421875 0.765625 10.113281 1.039062 C 9.808594 1.3125 9.632812 1.703125 9.632812 2.113281 C 9.632812 2.21875 9.644531 2.324219 9.667969 2.425781 L 9.320312 2.425781 C 9.011719 2.425781 8.757812 2.628906 8.679688 2.910156 C 8.664062 2.96875 8.652344 3.027344 8.652344 3.085938 Z M 8.652344 4.277344 "/>
<path style=" stroke:none;fill-rule:nonzero;fill:rgb(87.058824%,54.509804%,68.235294%);fill-opacity:1;" d="M 8.71875 7.511719 L 9.242188 8.03125 C 9.332031 8.121094 9.453125 8.164062 9.570312 8.164062 C 9.691406 8.164062 9.8125 8.121094 9.902344 8.027344 L 10.820312 7.117188 C 11.003906 6.933594 11.003906 6.636719 10.820312 6.453125 C 10.640625 6.269531 10.34375 6.269531 10.160156 6.453125 L 9.570312 7.035156 L 9.378906 6.84375 C 9.195312 6.664062 8.898438 6.664062 8.71875 6.847656 C 8.535156 7.03125 8.535156 7.328125 8.71875 7.511719 Z M 11.617188 7.710938 L 13.339844 7.710938 C 13.597656 7.710938 13.808594 7.5 13.808594 7.242188 C 13.808594 6.980469 13.597656 6.773438 13.339844 6.773438 L 11.621094 6.773438 C 11.359375 6.773438 11.152344 6.980469 11.152344 7.242188 C 11.152344 7.5 11.359375 7.710938 11.617188 7.710938 Z M 9.242188 10.015625 C 9.332031 10.105469 9.453125 10.152344 9.570312 10.152344 C 9.691406 10.152344 9.8125 10.105469 9.902344 10.015625 L 10.820312 9.105469 C 11.003906 8.921875 11.003906 8.625 10.820312 8.441406 C 10.640625 8.257812 10.34375 8.257812 10.160156 8.4375 L 9.570312 9.023438 L 9.378906 8.832031 C 9.195312 8.648438 8.898438 8.652344 8.71875 8.835938 C 8.535156 9.015625 8.535156 9.3125 8.71875 9.496094 Z M 11.617188 9.695312 L 13.339844 9.695312 C 13.597656 9.695312 13.808594 9.488281 13.808594 9.226562 C 13.808594 8.96875 13.597656 8.757812 13.339844 8.757812 L 11.621094 8.757812 C 11.359375 8.757812 11.152344 8.96875 11.152344 9.226562 C 11.152344 9.488281 11.359375 9.695312 11.617188 9.695312 Z M 8.71875 11.484375 L 9.242188 12.003906 C 9.332031 12.09375 9.453125 12.136719 9.570312 12.136719 C 9.691406 12.136719 9.8125 12.09375 9.902344 12.003906 L 10.820312 11.089844 C 11.003906 10.90625 11.003906 10.609375 10.820312 10.425781 C 10.640625 10.242188 10.34375 10.242188 10.160156 10.425781 L 9.570312 11.007812 L 9.378906 10.820312 C 9.195312 10.636719 8.898438 10.636719 8.71875 10.820312 C 8.535156 11.003906 8.535156 11.300781 8.71875 11.484375 Z M 11.617188 11.683594 L 12.9375 11.683594 C 12.992188 11.359375 13.082031 11.042969 13.195312 10.746094 L 11.617188 10.746094 C 11.359375 10.746094 11.148438 10.953125 11.148438 11.214844 C 11.148438 11.472656 11.359375 11.683594 11.617188 11.683594 Z M 11.617188 11.683594 "/>
<path style=" stroke:none;fill-rule:nonzero;fill:rgb(96.078431%,96.078431%,98.823529%);fill-opacity:1;" d="M 16.558594 12.167969 L 16.320312 12.722656 L 16.800781 12.722656 Z M 16.558594 12.167969 "/>
<path style=" stroke:none;fill-rule:nonzero;fill:rgb(96.078431%,96.078431%,98.823529%);fill-opacity:1;" d="M 22.46875 12.484375 C 22.46875 10.957031 21.75 9.59375 20.632812 8.714844 C 19.816406 8.070312 18.789062 7.6875 17.667969 7.6875 C 24.515625 7.6875 24.515625 7.6875 24.515625 7.6875 Z M 22.46875 12.484375 "/>
<path style=" stroke:none;fill-rule:nonzero;fill:rgb(87.058824%,54.509804%,68.235294%);fill-opacity:1;" d="M 17.425781 14.171875 C 17.503906 14.347656 17.675781 14.457031 17.859375 14.457031 C 17.921875 14.457031 17.984375 14.441406 18.042969 14.417969 C 18.28125 14.3125 18.390625 14.039062 18.289062 13.800781 L 17.949219 13.011719 C 17.945312 13.007812 17.945312 13.007812 17.945312 13.003906 L 16.992188 10.800781 C 16.917969 10.628906 16.746094 10.515625 16.558594 10.515625 C 16.375 10.515625 16.203125 10.628906 16.128906 10.800781 L 15.175781 13.003906 C 15.175781 13.007812 15.175781 13.007812 15.171875 13.011719 L 14.832031 13.800781 C 14.730469 14.039062 14.839844 14.3125 15.078125 14.417969 C 15.3125 14.519531 15.589844 14.410156 15.691406 14.171875 L 15.914062 13.660156 L 17.207031 13.660156 Z M 16.320312 12.722656 L 16.558594 12.167969 L 16.800781 12.722656 Z M 20.722656 13.589844 C 20.984375 13.589844 21.191406 13.378906 21.191406 13.121094 C 21.191406 12.863281 20.984375 12.652344 20.722656 12.652344 L 20.328125 12.652344 L 20.328125 12.253906 C 20.328125 11.996094 20.117188 11.785156 19.859375 11.785156 C 19.597656 11.785156 19.390625 11.996094 19.390625 12.253906 L 19.390625 12.652344 L 18.992188 12.652344 C 18.734375 12.652344 18.523438 12.863281 18.523438 13.121094 C 18.523438 13.378906 18.734375 13.589844 18.992188 13.589844 L 19.390625 13.589844 L 19.390625 13.988281 C 19.390625 14.246094 19.597656 14.457031 19.859375 14.457031 C 20.117188 14.457031 20.328125 14.246094 20.328125 13.988281 L 20.328125 13.589844 Z M 20.722656 13.589844 "/>
</g>
</svg>
